<svg width="25" height="24" viewBox="0 0 25 24" fill="none" xmlns="http://www.w3.org/2000/svg">
<path d="M13.619 20.7557C13.7344 20.7776 13.8552 20.7913 13.9786 20.8022C14.0055 21.6221 13.7103 21.7451 14.1343 21.8955C14.0365 21.7087 13.996 21.4963 14.018 21.2858C14.04 21.0753 14.1235 20.8764 14.2577 20.7147C14.4456 20.4141 14.6334 20.1162 14.2899 19.657L14.5583 19.6707C14.5127 19.7116 14.5583 19.7718 14.5073 19.8128C14.8079 19.8483 14.7273 19.6215 14.6093 19.37C14.4912 19.1186 14.3409 18.8234 14.5422 18.6949C14.7032 18.6184 14.9045 18.6157 14.9313 18.796C14.9364 18.7178 14.9364 18.6392 14.9313 18.561L14.8964 18.3779C14.9581 18.3314 15.0977 18.4626 15.0386 18.5091L15.197 18.1483L15.2211 18.1701C15.1101 18.0014 15.0106 17.8252 14.9232 17.6426C15.1057 17.6618 14.9876 17.752 15.1111 17.8176L15.0252 17.4841C15.2936 17.5907 15.417 17.8996 15.2936 17.9925C16.2811 18.5063 15.1782 17.6809 15.9403 17.7192V17.9652C16.5119 18.2385 16.4234 17.9816 16.8661 18.0389C16.6729 17.957 15.8222 17.7984 15.7417 17.4486C15.8464 17.4486 15.9269 17.4049 15.8249 17.1753C16.1362 17.4131 16.1308 17.2573 16.2033 17.1233L16.6085 17.4486C16.5871 17.2272 16.3697 17.0741 16.2436 16.8555C16.3911 16.7407 16.732 16.9566 17.0272 17.1288C17.266 16.9457 16.3965 16.8965 16.5253 16.5603C16.8259 16.4865 16.7588 16.2214 16.6863 15.8005C16.9305 15.7732 16.9198 16.0164 17.0755 16.0601L16.8366 15.6857C16.8661 15.6638 16.9601 15.7513 17.0057 15.795C16.9547 15.5955 16.6032 15.4698 16.6112 15.2238C16.1899 14.8302 17.5156 15.4069 17.1479 14.8111C17.3009 14.8548 17.3814 15.0297 17.5531 15.1391C17.4946 14.7877 17.3727 14.4503 17.1935 14.1442L17.6041 14.1633C17.1908 14.0649 16.9601 13.6167 16.7749 13.2176C16.5897 13.152 16.4287 13.0946 16.3455 13.0728L16.3106 12.6546C16.453 12.7333 16.5738 12.847 16.6622 12.9853C16.6407 12.9416 16.6193 12.8979 16.5978 12.8623C16.8178 12.8897 17.0191 13.1192 17.2016 13.3598L16.8822 13.2559C17.0784 13.5186 17.3086 13.753 17.5666 13.9529C17.5331 13.9041 17.5161 13.8456 17.5182 13.7861C17.5599 13.8445 17.6117 13.8946 17.6712 13.9337C17.7222 13.9583 17.6497 13.8627 17.5773 13.7424L18.0764 14.0376L17.9047 13.8845L18.4414 13.7807C18.1542 13.193 17.6363 12.466 17.7115 11.9494C17.9798 12.302 18.2482 12.3922 18.64 12.7065C18.1435 12.4824 18.6051 13.1302 18.3716 13.2532C18.4897 13.1876 18.6641 13.3543 18.7097 13.4308L18.5809 12.794C18.9003 13.0536 18.8788 12.9088 19.0801 12.9252C18.3877 12.4961 18.8412 12.3403 18.7473 12.0478C18.97 12.2064 19.1659 12.4086 18.9888 12.5398C19.6114 12.7257 18.4146 11.7199 18.962 11.8483C18.9352 11.8948 18.8869 11.892 18.9835 11.9932C18.8627 11.7472 19.1901 11.6269 19.3377 11.8292L19.3109 11.8729C19.5926 11.657 19.9388 11.053 19.4236 10.5774C19.496 10.6293 20.0542 11.124 20.1535 11.2251L18.6829 9.31192C19.1176 9.71643 20.3574 10.4052 20.4514 10.8452C20.5695 10.8316 20.7063 10.8097 20.6446 10.5446C20.5426 10.5446 19.8825 10.1319 19.8851 10.0389C20.5319 10.274 20.2501 10.1373 20.8485 10.274C20.6983 10.274 20.0193 9.62077 20.1213 9.53331C20.2206 9.63444 20.8539 10.0799 20.9022 10.1838L20.3655 9.36386C20.6049 9.61766 20.895 9.81618 21.2162 9.94602C21.0552 9.86403 21.3987 9.72737 21.3799 9.60164L21.1303 9.58524C21.4604 9.37205 20.3252 8.50837 20.5936 8.24325C20.7144 8.39358 21.4443 9.03861 21.6482 8.95935C21.3289 8.60404 20.0971 7.28391 20.0059 6.80287L20.2555 6.91493L20.1615 6.52956C20.7701 7.27777 21.3338 8.06271 21.8495 8.88009C22.0991 8.89649 22.1179 9.04134 22.2252 8.85822C22.3017 8.88232 22.3662 8.93554 22.4052 9.00681C22.4442 9.07808 22.4547 9.16191 22.4345 9.24087L22.8505 8.95114C22.405 8.6341 22.6385 8.31978 22.2681 8.0574L22.4023 8.82269C21.9568 8.50838 21.3584 7.63376 21.6375 7.42057C21.8629 7.4807 22.3674 8.0656 22.515 8.16946C22.3943 8.01914 22.4265 7.69116 22.5499 7.74582L22.6948 8.041C22.9632 8.01367 22.3084 7.34951 22.8558 7.49437C22.931 7.45337 23.5536 7.73488 23.3067 7.52716C22.4431 7.01791 21.6337 6.41887 20.8915 5.73966C21.2339 5.74857 21.5742 5.79718 21.9059 5.88453C22.3701 6.07859 22.7109 6.75367 23.1081 6.9204C23.0076 6.82768 22.924 6.71756 22.8612 6.59515C23.0115 6.59515 23.2047 6.904 23.2611 6.71815C22.8424 6.35737 23.5294 6.44483 22.9417 6.36556C22.9229 6.12504 23.143 6.28357 23.2476 6.09225C22.9256 5.92552 22.3969 5.1985 22.3782 4.96072C22.4852 5.04707 22.6035 5.11789 22.7297 5.17117C22.9846 4.91152 23.2986 4.89785 23.5053 4.64093C23.6287 4.69833 23.8541 4.66553 24.0017 4.86779C23.9534 4.7694 23.8326 4.61907 23.8836 4.52614C24.3801 4.65734 23.8031 4.75846 24.3506 4.98531C24.1037 4.78033 24.16 4.49881 24.0822 4.25829C23.6609 3.98497 23.8004 4.47421 23.8702 4.71746C23.3335 4.29928 22.9176 3.65425 22.8773 3.17868C22.9095 2.84797 23.2986 3.35088 23.253 3.25248C23.6609 2.90264 22.5741 2.15921 23.2262 2.11275C23.6743 2.24121 23.9158 2.63752 24.1896 2.79878C24.1896 3.07209 23.7602 2.91083 23.6824 3.04476L23.9507 3.01743C24.0205 3.16502 24.0178 3.35361 23.8675 3.34267C24.2647 3.46567 24.4579 2.67578 24.9866 2.57192C24.9141 2.42433 24.8685 2.23301 24.6968 2.17288L24.6672 2.31227C24.3184 2.19201 24.4257 1.8203 24.2003 1.85036C24.1064 1.56338 23.9158 1.1698 24.2164 1.09601L24.6377 1.36932C24.5196 1.28459 24.3103 1.31466 24.3881 1.46225C24.2754 1.24633 25.1422 1.57705 24.6941 1.09054L24.3211 1.01401C24.2244 0.724297 23.9346 0.229594 24.1869 0.153065C23.7414 -0.0683217 24.203 0.226853 23.6502 0C24.2942 0.327981 23.2959 0.42091 24.0178 0.710627C23.3979 0.437309 23.6314 0.754363 23.0598 0.571241C23.194 0.666902 23.3523 0.705165 23.1805 0.800826C23.2137 0.838709 23.2441 0.878893 23.2718 0.921087C23.2879 0.942952 23.2906 0.945685 23.2718 0.921087C23.36 0.929662 23.4456 0.955656 23.524 0.997615C23.7682 1.301 23.5884 1.52238 23.6851 1.71917C23.5589 1.75743 23.5616 1.56885 23.3872 1.50872L23.5321 1.8039C23.2342 1.59344 22.8827 1.66177 22.8666 1.32833L22.7163 1.50052C22.4748 1.48412 22.3003 1.58251 22.354 1.77384C22.2279 1.8121 22.5123 2.23848 22.354 1.98976L22.3191 2.4134L22.244 2.35873C21.9998 2.61292 22.2896 3.30988 21.5302 3.23061C21.5302 3.38094 21.5489 3.54766 21.3477 3.64333L21.0793 3.48207C21.0793 3.67066 20.5426 3.65426 20.7788 3.90844C20.0086 3.52033 20.1911 4.38675 19.912 4.50701L20.2313 4.76666C20.1085 4.9519 20.0561 5.1763 20.0837 5.39802L20.3816 5.60848C20.4997 5.95012 19.8744 5.85719 19.7188 6.12778C19.6195 6.02665 19.6973 5.98565 19.7966 5.99112C18.9244 5.78887 19.7966 6.98599 19.1257 6.89306C19.1794 7.04066 19.1069 7.06253 18.9996 7.05159C18.9996 7.05159 18.9996 7.03519 18.9996 7.02426C18.9902 7.03102 18.9821 7.03933 18.9754 7.04886C18.9056 7.04886 18.8251 7.02699 18.7527 7.02426C18.8219 7.04846 18.8942 7.06227 18.9674 7.06526C18.9237 7.15686 18.9087 7.25989 18.9244 7.36044L18.5917 7.15546C18.5917 7.15546 18.5917 7.16912 18.5917 7.18005C18.4226 7.18005 18.6936 7.35497 18.9566 7.49437C18.9818 7.58123 19.0188 7.66404 19.0667 7.74035C18.5299 7.4151 19.0828 8.07106 18.4897 7.74035C18.7097 7.9918 18.3931 8.28699 18.9083 8.74069C18.8359 8.68876 18.7849 8.68603 18.8117 8.63957C18.6856 8.67783 18.5595 8.71609 18.6561 8.91288L18.2348 8.63957L18.6239 9.23813C18.475 9.2247 18.3317 9.17401 18.2067 9.09056C18.0817 9.00712 17.9789 8.89351 17.9074 8.75983C18.1757 9.39119 17.9074 9.11787 18.2026 9.7055L17.9583 9.49778C17.9074 9.58797 18.1462 9.98429 17.8993 9.87223C17.2794 9.68637 17.1452 10.7441 16.3429 10.8753C17.1479 11.3618 15.841 10.8398 16.4073 11.3071C16.2087 11.1978 16.0584 11.1869 15.9645 10.9901C15.9645 11.37 15.409 11.1404 15.7739 11.6871C15.5753 11.5777 15.5512 11.4356 15.4278 11.3782C15.4519 11.4274 15.5244 11.575 15.4009 11.5176C15.2775 11.4602 15.2775 11.3673 15.2292 11.2689C15.0735 11.5422 15.5995 11.9877 16.0986 12.4004C15.7632 12.3403 15.7498 12.4305 16.0181 12.7803C15.8169 12.6956 15.5888 12.6327 15.6424 12.4332C15.5539 12.5015 15.0011 12.7749 15.4036 13.1001C15.2802 13.0482 15.2828 13.1985 15.3124 13.2586C15.1433 13.4363 15.095 13.4254 14.9903 13.6467H15.095C15.5351 14.1059 15.095 13.8927 15.0306 14.095L14.985 14.0512C14.3624 14.1305 15.0413 14.3246 14.3731 14.371L14.6951 14.5897C15.3311 15.1363 14.0726 14.5897 14.1745 14.9969L14.4053 15.0598C14.5502 15.3468 13.2755 14.6744 13.1092 14.7236C13.034 14.7017 13.0448 14.6143 13.0287 14.546C12.4195 14.546 13.4017 14.8958 13.3346 15.1855C13.0877 15.0571 12.8193 14.7072 12.6717 14.822C12.441 14.7591 13.0609 15.7923 12.4946 15.6693C12.6959 15.754 12.8945 15.8415 12.9455 16.0383C12.8891 16.2405 12.0009 15.9672 12.4249 16.5166C12.3699 16.5015 12.3181 16.4765 12.2719 16.4428C12.2719 16.4701 12.2719 16.5029 12.2853 16.5302L12.3095 16.5986L12.3524 16.7571C12.3904 16.9045 12.453 17.0441 12.5376 17.1698C12.0411 16.7106 12.1001 16.8965 12.127 17.1698C12.1538 17.4431 12.1699 17.7164 11.8586 17.1124L11.7486 17.3721L11.6976 17.2299C11.5822 17.2463 11.6681 17.629 11.7271 18.0499C11.677 17.951 11.6452 17.8435 11.6332 17.7328C11.4024 17.6235 11.4561 17.6399 11.4266 18.7113L11.3434 18.1647C11.3434 18.3615 11.2575 18.1947 11.1824 18.0745C11.1019 17.8012 11.0401 17.6262 10.9623 17.8722C10.9644 17.7926 10.9716 17.7131 10.9838 17.6344C10.8926 17.8832 10.8067 17.3885 10.7798 17.1343C10.753 16.8801 10.7262 16.809 10.4578 17.5907C10.3764 17.6822 10.2866 17.7655 10.1895 17.8394C10.2168 17.9212 10.2248 18.0084 10.2127 18.094C10.2005 18.1795 10.1687 18.2608 10.1197 18.3314C10.0102 18.4765 9.94242 18.6496 9.92379 18.8316C9.85401 18.8316 9.82717 18.632 9.84596 18.4626C9.86474 18.2931 9.9211 18.1373 9.99087 18.1537L9.97746 18.2467C10.1492 17.8722 10.1143 17.7383 10.0714 17.6399C10.0284 17.5415 9.96404 17.465 10.1009 17.2327C10.0162 17.1551 9.94621 17.0625 9.89426 16.9593C9.86717 16.9074 9.84386 16.8535 9.82449 16.7981C9.808 16.7568 9.78731 16.7174 9.76277 16.6806L9.693 16.5494C9.52518 16.202 9.31997 15.8748 9.08114 15.5736L8.71887 16.0519L8.56591 15.8442C8.61689 15.6966 8.83426 15.4506 8.9416 15.601C9.11335 15.2921 8.53102 15.5764 8.43441 15.6638C8.35659 15.2375 9.02211 15.2784 8.9577 15.1882L8.82084 15.1117L8.79669 15.1855C8.52833 15.2675 8.35122 15.4424 8.21973 15.262C8.21973 15.0789 8.42905 14.9532 8.40758 14.8985C8.4371 14.8685 8.43978 14.8411 8.36195 14.8247L8.17411 14.5514L7.93258 14.9751C7.66423 15.0352 7.73937 14.7373 7.46565 15.221C7.89502 14.4858 6.84038 14.1442 6.92894 13.8681C6.8085 13.9173 6.67423 13.9182 6.5532 13.8705C6.43217 13.8228 6.33341 13.7302 6.27683 13.6112C6.25 13.7233 5.90114 14.1223 5.79916 13.9228C6.6257 13.2122 5.86625 13.3106 6.30367 12.6355C6.03532 13.111 5.79648 12.2911 5.43957 12.9853C5.38053 12.794 5.72134 12.6901 5.8099 12.4113C5.2222 12.4113 5.36442 11.5504 4.90553 11.2771C4.79819 11.3727 4.70159 11.5887 4.47617 11.657L4.79283 10.9573C4.67207 10.9327 4.14072 11.4711 4.36346 10.9846C4.29637 11.0885 4.19707 11.2579 4.11657 11.2279C3.90725 10.0034 2.27297 10.1346 2.48765 8.46191C2.38836 8.75709 2.30249 8.71063 2.2193 8.63957C2.2193 8.73796 1.96705 8.88829 1.84092 9.03588L1.92411 8.34439C1.48669 8.66417 1.57525 8.03553 1.18076 8.36351L1.34178 8.39905C0.783598 8.69423 0.560863 9.53332 0 10.0608C0.627952 9.72191 -0.354231 11.1705 0.576963 10.714C0.517924 10.8808 0.356912 10.8452 0.254937 10.9874C0.550128 10.8152 0.670886 10.8398 0.697722 11.083L0.622583 11.124C1.04927 11.452 0.974128 11.8483 1.23443 12.4359L1.47596 12.1326C1.52963 12.261 1.46253 12.3649 1.4357 12.4769C1.95094 12.1736 1.2076 12.2036 1.75773 11.8374C1.32031 12.5125 2.37763 12.4988 1.82481 13.204C1.95899 13.3516 2.09317 12.8487 2.2354 12.9962L2.10122 13.204L2.36958 13.0208C2.42325 13.1493 2.25419 13.409 2.10122 13.5675C2.10122 13.5292 1.99925 13.5429 1.96436 13.5319C1.87849 13.8545 2.36153 13.8053 2.33469 13.9119L2.30785 13.6713C2.84457 13.9037 3.07535 14.6006 3.78381 14.6334L3.8831 14.4776C4.39835 14.5268 3.96361 14.8466 4.37687 15.0543L4.33394 15.0735C4.52448 15.0079 4.66939 15.0297 4.73648 15.1309C4.51106 15.1992 4.58888 15.5709 4.32052 15.631C4.87602 15.6912 4.66938 15.5873 5.34564 15.3167L5.17926 15.5764C5.44762 15.4561 5.5469 15.3604 5.75354 15.4616C5.44493 15.5162 5.52275 15.8879 5.14169 15.9836C4.99141 16.779 6.0863 16.0055 5.54691 16.8364C6.28488 16.4018 5.60058 16.2241 5.81526 16.1831C5.93871 15.9098 6.37612 15.8688 6.41638 16.0328C6.50493 16.1503 5.83405 16.9648 6.09972 17.219C6.07557 17.1889 6.02995 17.2327 6.00848 17.2026C5.95212 17.454 6.39759 17.2026 6.27683 17.5606C6.69815 17.2737 6.40833 17.741 6.88332 17.3065L6.5425 17.1671C6.79476 17.1862 7.45223 16.7872 7.41197 17.2709C7.28613 17.3433 7.1491 17.3932 7.00676 17.4185C6.93431 17.618 7.21876 17.4568 7.1463 17.6645C6.67131 18.0991 6.76255 17.465 6.27146 17.6645C6.14802 17.9378 6.87258 17.6153 6.30635 18.0335C7.03628 17.5142 6.4781 18.3724 7.1302 18.0772L6.84575 18.3369C6.91552 18.3369 7.10068 18.2521 7.14362 18.3123L6.69815 18.5692C7.14094 18.4161 6.69815 19.1158 7.00408 19.0912C6.71425 18.8179 7.27243 18.6976 7.35026 18.3751C7.70717 18.3751 7.57836 18.602 7.4254 18.8671C7.27243 19.1322 7.04165 19.3755 7.4737 19.6871C7.3422 19.6269 7.29659 19.1678 7.55957 19.1814C7.64318 19.4061 7.66995 19.6486 7.6374 19.8866C7.88697 20.0861 7.92453 19.9822 7.94868 19.8374C7.97284 19.6925 7.98357 19.5039 8.1419 19.4957C8.00236 20.026 8.45588 19.5449 8.67861 19.5723L8.47198 19.9248C8.80742 20.6382 8.98722 19.2825 9.21801 19.9604C9.09024 20.0896 8.95587 20.2118 8.81548 20.3266L9.08383 20.4086L8.85305 20.8131C9.2368 20.7339 9.25826 20.8815 9.45953 21.2723C9.49441 20.9088 9.71179 20.507 9.89158 20.6765C9.95867 21.0837 9.72252 21.0372 10.0097 21.2559C9.89695 21.4937 9.7413 21.7725 9.70642 21.2204C9.6608 21.3543 9.57493 21.4363 9.52394 21.5647C9.6125 22.0431 9.91842 22.0649 10.0258 22.1715C9.97495 22.1009 9.94013 22.0197 9.92379 21.9337C10.1027 21.8682 10.2745 21.7839 10.4363 21.6823C10.4585 21.7605 10.4621 21.8429 10.4467 21.9228C10.4313 22.0027 10.3974 22.0776 10.3478 22.1414C10.4417 22.177 10.5195 21.9993 10.643 22.0786C10.5839 22.4776 10.5678 22.9368 10.3505 22.9259C10.5064 22.9286 10.6624 22.9213 10.8174 22.904C10.8362 23.1227 11.0348 23.6802 10.9757 23.7868C11.1421 24.1339 11.3514 23.9426 11.542 23.9125C11.6359 23.6392 11.7298 23.4288 11.8425 23.426C11.8488 23.2974 11.8732 23.1704 11.915 23.0489C12.0465 22.9341 12.1833 22.9341 12.3336 22.8275C12.4839 22.7209 12.6154 22.5186 12.6959 22.0431C12.8115 22.2023 12.9361 22.3547 13.0689 22.4995C13.1736 22.248 13.0421 22.125 12.9374 21.9529C12.864 21.8404 12.8209 21.7102 12.8124 21.5754C12.8039 21.4406 12.8304 21.3059 12.8891 21.1848C13.0716 20.6382 13.1816 21.603 13.3453 21.6495C13.3493 21.3516 13.369 21.0542 13.4044 20.7585C13.45 20.4851 13.5412 20.3157 13.7908 20.3704C13.7854 20.6054 13.6888 20.6109 13.619 20.7557ZM15.7471 17.4759C15.7793 17.5716 15.9135 17.8176 15.7042 17.7082C15.3902 17.3939 15.5888 17.4705 15.7471 17.4732V17.4759ZM17.6417 13.3543C17.7195 13.4691 17.6417 13.48 17.4699 13.45C17.4753 13.3844 17.5236 13.3461 17.6417 13.3516V13.3543ZM22.8397 1.81483V1.83123C22.6546 1.8367 22.7297 1.8367 22.8397 1.81483ZM23.1296 1.71097C23.1026 1.66101 23.0601 1.62158 23.0088 1.59891C23.0759 1.67544 23.0464 1.72464 22.9846 1.7629C23.0813 1.81483 23.1537 1.81483 23.1296 1.70823V1.71097ZM8.3217 14.9833L8.28413 15.0926C8.11238 15.0899 8.20631 15.0407 8.3217 14.9833Z" fill="#E91C24"/>
</svg>
