<svg width="532" height="248" viewBox="0 0 532 248" fill="none" xmlns="http://www.w3.org/2000/svg">
<g filter="url(#filter0_d_205_341)">
<path d="M4 0H487C509.644 0 528 18.3563 528 41V240H4V0Z" fill="#F7EFED"/>
</g>
<path d="M38 17.5H495C504.665 17.5 512.5 25.335 512.5 35V217.5H20.5V35C20.5 25.335 28.335 17.5 38 17.5Z" stroke="#CB9491"/>
<rect x="28" width="5" height="11" fill="#242424"/>
<rect x="78" width="5" height="11" fill="#242424"/>
<rect x="43" width="5" height="11" fill="#242424"/>
<rect x="95" width="5" height="11" fill="#242424"/>
<rect x="60" width="5" height="11" fill="#242424"/>
<rect x="138" width="5" height="11" fill="#242424"/>
<rect x="235" width="5" height="11" fill="#242424"/>
<rect x="329" width="5" height="11" fill="#242424"/>
<rect x="155" width="5" height="11" fill="#242424"/>
<rect x="252" width="5" height="11" fill="#242424"/>
<rect x="346" width="5" height="11" fill="#242424"/>
<rect x="171" width="5" height="11" fill="#242424"/>
<rect x="268" width="5" height="11" fill="#242424"/>
<rect x="187" width="5" height="11" fill="#242424"/>
<rect x="284" width="5" height="11" fill="#242424"/>
<rect x="203" width="5" height="11" fill="#242424"/>
<rect x="300" width="5" height="11" fill="#242424"/>
<line x1="20" y1="45.5" x2="105" y2="45.5" stroke="#CB9491"/>
<line x1="105" y1="51.5" x2="513" y2="51.5" stroke="#CB9491"/>
<line x1="105" y1="35.5" x2="378" y2="35.5" stroke="#CB9491"/>
<line x1="20" y1="67.5" x2="513" y2="67.5" stroke="#CB9491"/>
<line x1="37.5" y1="17" x2="37.5" y2="218" stroke="#CB9491"/>
<line x1="71.5" y1="17" x2="71.5" y2="218" stroke="#CB9491"/>
<line x1="105.5" y1="17" x2="105.5" y2="218" stroke="#CB9491"/>
<line x1="130.5" y1="51" x2="130.5" y2="218" stroke="#CB9491"/>
<line x1="360.5" y1="51" x2="360.5" y2="218" stroke="#CB9491"/>
<line x1="385.5" y1="51" x2="385.5" y2="218" stroke="#CB9491"/>
<line x1="54.5" y1="17.5" x2="54.5" y2="45.5" stroke="#CB9491" stroke-linecap="round" stroke-dasharray="2 2"/>
<line x1="88.5" y1="17.5" x2="88.5" y2="45.5" stroke="#CB9491" stroke-linecap="round" stroke-dasharray="2 2"/>
<line x1="222.5" y1="51.5" x2="222.5" y2="217.5" stroke="#CB9491" stroke-linecap="round" stroke-dasharray="2 2"/>
<line x1="317.5" y1="52.5" x2="317.5" y2="217.5" stroke="#CB9491" stroke-linecap="round" stroke-dasharray="2 2"/>
<g style="mix-blend-mode:multiply">
<rect x="21" y="46" width="84" height="22" fill="#CB9491" fill-opacity="0.2"/>
</g>
<g style="mix-blend-mode:multiply">
<rect x="105" y="18" width="35" height="34" fill="#CB9491" fill-opacity="0.2"/>
</g>
<g style="mix-blend-mode:multiply">
<rect x="105" y="52" width="408" height="16" fill="#CB9491" fill-opacity="0.2"/>
</g>
<g style="mix-blend-mode:multiply">
<rect x="105" y="68" width="25" height="150" fill="#CB9491" fill-opacity="0.2"/>
</g>
<g style="mix-blend-mode:multiply">
<rect x="360" y="68" width="25" height="150" fill="#CB9491" fill-opacity="0.2"/>
</g>
<g style="mix-blend-mode:multiply">
<rect x="378" y="18" width="17" height="34" fill="#CB9491" fill-opacity="0.2"/>
</g>
<line x1="21" y1="85.5" x2="105" y2="85.5" stroke="#CB9491"/>
<line x1="139.5" y1="18" x2="139.5" y2="52" stroke="#CB9491"/>
<line x1="255.5" y1="18" x2="255.5" y2="52" stroke="#CB9491"/>
<line x1="378.5" y1="18" x2="378.5" y2="52" stroke="#CB9491"/>
<line x1="395.5" y1="18" x2="395.5" y2="52" stroke="#CB9491"/>
<rect x="137.275" y="71.275" width="6.45" height="14.45" rx="3.225" stroke="#CB9491" stroke-width="0.55"/>
<rect x="137.275" y="89.275" width="6.45" height="14.45" rx="3.225" stroke="#CB9491" stroke-width="0.55"/>
<rect x="137.275" y="107.275" width="6.45" height="14.45" rx="3.225" stroke="#CB9491" stroke-width="0.55"/>
<rect x="137.275" y="125.275" width="6.45" height="14.45" rx="3.225" stroke="#CB9491" stroke-width="0.55"/>
<rect x="137.275" y="143.275" width="6.45" height="14.45" rx="3.225" stroke="#CB9491" stroke-width="0.55"/>
<rect x="137.275" y="161.275" width="6.45" height="14.45" rx="3.225" stroke="#CB9491" stroke-width="0.55"/>
<rect x="137.275" y="179.275" width="6.45" height="14.45" rx="3.225" stroke="#CB9491" stroke-width="0.55"/>
<rect x="137.275" y="197.275" width="6.45" height="14.45" rx="3.225" stroke="#CB9491" stroke-width="0.55"/>
<rect x="233.275" y="71.275" width="6.45" height="14.45" rx="3.225" stroke="#CB9491" stroke-width="0.55"/>
<rect x="233.275" y="89.275" width="6.45" height="14.45" rx="3.225" stroke="#CB9491" stroke-width="0.55"/>
<rect x="233.275" y="107.275" width="6.45" height="14.45" rx="3.225" stroke="#CB9491" stroke-width="0.55"/>
<rect x="233.275" y="125.275" width="6.45" height="14.45" rx="3.225" stroke="#CB9491" stroke-width="0.55"/>
<rect x="233.275" y="143.275" width="6.45" height="14.45" rx="3.225" stroke="#CB9491" stroke-width="0.55"/>
<rect x="233.275" y="161.275" width="6.45" height="14.45" rx="3.225" stroke="#CB9491" stroke-width="0.55"/>
<rect x="233.275" y="179.275" width="6.45" height="14.45" rx="3.225" stroke="#CB9491" stroke-width="0.55"/>
<rect x="233.275" y="197.275" width="6.45" height="14.45" rx="3.225" stroke="#CB9491" stroke-width="0.55"/>
<rect x="327.275" y="71.275" width="6.45" height="14.45" rx="3.225" stroke="#CB9491" stroke-width="0.55"/>
<rect x="327.275" y="89.275" width="6.45" height="14.45" rx="3.225" stroke="#CB9491" stroke-width="0.55"/>
<rect x="327.275" y="107.275" width="6.45" height="14.45" rx="3.225" stroke="#CB9491" stroke-width="0.55"/>
<rect x="327.275" y="125.275" width="6.45" height="14.45" rx="3.225" stroke="#CB9491" stroke-width="0.55"/>
<rect x="327.275" y="143.275" width="6.45" height="14.45" rx="3.225" stroke="#CB9491" stroke-width="0.55"/>
<rect x="327.275" y="161.275" width="6.45" height="14.45" rx="3.225" stroke="#CB9491" stroke-width="0.55"/>
<rect x="327.275" y="179.275" width="6.45" height="14.45" rx="3.225" stroke="#CB9491" stroke-width="0.55"/>
<rect x="327.275" y="197.275" width="6.45" height="14.45" rx="3.225" stroke="#CB9491" stroke-width="0.55"/>
<rect x="154.275" y="71.275" width="6.45" height="14.45" rx="3.225" stroke="#CB9491" stroke-width="0.55"/>
<rect x="154.275" y="89.275" width="6.45" height="14.45" rx="3.225" stroke="#CB9491" stroke-width="0.55"/>
<rect x="77.275" y="89.275" width="6.45" height="14.45" rx="3.225" stroke="#CB9491" stroke-width="0.55"/>
<rect x="43.275" y="89.275" width="6.45" height="14.45" rx="3.225" stroke="#CB9491" stroke-width="0.55"/>
<rect x="26.275" y="89.275" width="6.45" height="14.45" rx="3.225" stroke="#CB9491" stroke-width="0.55"/>
<rect x="77.275" y="69.275" width="6.45" height="14.45" rx="3.225" stroke="#CB9491" stroke-width="0.55"/>
<rect x="43.275" y="69.275" width="6.45" height="14.45" rx="3.225" stroke="#CB9491" stroke-width="0.55"/>
<rect x="77.275" y="107.275" width="6.45" height="14.45" rx="3.225" stroke="#CB9491" stroke-width="0.55"/>
<rect x="43.275" y="107.275" width="6.45" height="14.45" rx="3.225" stroke="#CB9491" stroke-width="0.55"/>
<rect x="26.275" y="107.275" width="6.45" height="14.45" rx="3.225" stroke="#CB9491" stroke-width="0.55"/>
<rect x="77.275" y="125.275" width="6.45" height="14.45" rx="3.225" stroke="#CB9491" stroke-width="0.55"/>
<rect x="43.275" y="125.275" width="6.45" height="14.45" rx="3.225" stroke="#CB9491" stroke-width="0.55"/>
<rect x="26.275" y="125.275" width="6.45" height="14.45" rx="3.225" stroke="#CB9491" stroke-width="0.55"/>
<rect x="77.275" y="143.275" width="6.45" height="14.45" rx="3.225" stroke="#CB9491" stroke-width="0.55"/>
<rect x="43.275" y="143.275" width="6.45" height="14.45" rx="3.225" stroke="#CB9491" stroke-width="0.55"/>
<rect x="26.275" y="143.275" width="6.45" height="14.45" rx="3.225" stroke="#CB9491" stroke-width="0.55"/>
<rect x="77.275" y="161.275" width="6.45" height="14.45" rx="3.225" stroke="#CB9491" stroke-width="0.55"/>
<rect x="43.275" y="161.275" width="6.45" height="14.45" rx="3.225" stroke="#CB9491" stroke-width="0.55"/>
<rect x="26.275" y="161.275" width="6.45" height="14.45" rx="3.225" stroke="#CB9491" stroke-width="0.55"/>
<rect x="77.275" y="179.275" width="6.45" height="14.45" rx="3.225" stroke="#CB9491" stroke-width="0.55"/>
<rect x="43.275" y="179.275" width="6.45" height="14.45" rx="3.225" stroke="#CB9491" stroke-width="0.55"/>
<rect x="26.275" y="179.275" width="6.45" height="14.45" rx="3.225" stroke="#CB9491" stroke-width="0.55"/>
<rect x="93.275" y="89.275" width="6.45" height="14.45" rx="3.225" stroke="#CB9491" stroke-width="0.55"/>
<rect x="59.275" y="89.275" width="6.45" height="14.45" rx="3.225" stroke="#CB9491" stroke-width="0.55"/>
<rect x="77.275" y="197.275" width="6.45" height="14.45" rx="3.225" stroke="#CB9491" stroke-width="0.55"/>
<rect x="43.275" y="197.275" width="6.45" height="14.45" rx="3.225" stroke="#CB9491" stroke-width="0.55"/>
<rect x="26.275" y="197.275" width="6.45" height="14.45" rx="3.225" stroke="#CB9491" stroke-width="0.55"/>
<rect x="93.275" y="69.275" width="6.45" height="14.45" rx="3.225" stroke="#CB9491" stroke-width="0.55"/>
<rect x="59.275" y="69.275" width="6.45" height="14.45" rx="3.225" stroke="#CB9491" stroke-width="0.55"/>
<rect x="93.275" y="107.275" width="6.45" height="14.45" rx="3.225" stroke="#CB9491" stroke-width="0.55"/>
<rect x="59.275" y="107.275" width="6.45" height="14.45" rx="3.225" stroke="#CB9491" stroke-width="0.55"/>
<rect x="93.275" y="125.275" width="6.45" height="14.45" rx="3.225" stroke="#CB9491" stroke-width="0.55"/>
<rect x="59.275" y="125.275" width="6.45" height="14.45" rx="3.225" stroke="#CB9491" stroke-width="0.55"/>
<rect x="93.275" y="143.275" width="6.45" height="14.45" rx="3.225" stroke="#CB9491" stroke-width="0.55"/>
<rect x="59.275" y="143.275" width="6.45" height="14.45" rx="3.225" stroke="#CB9491" stroke-width="0.55"/>
<rect x="93.275" y="161.275" width="6.45" height="14.45" rx="3.225" stroke="#CB9491" stroke-width="0.55"/>
<rect x="59.275" y="161.275" width="6.45" height="14.45" rx="3.225" stroke="#CB9491" stroke-width="0.55"/>
<rect x="93.275" y="179.275" width="6.45" height="14.45" rx="3.225" stroke="#CB9491" stroke-width="0.55"/>
<rect x="59.275" y="179.275" width="6.45" height="14.45" rx="3.225" stroke="#CB9491" stroke-width="0.55"/>
<rect x="93.275" y="197.275" width="6.45" height="14.45" rx="3.225" stroke="#CB9491" stroke-width="0.55"/>
<rect x="59.275" y="197.275" width="6.45" height="14.45" rx="3.225" stroke="#CB9491" stroke-width="0.55"/>
<rect x="154.275" y="107.275" width="6.45" height="14.45" rx="3.225" stroke="#CB9491" stroke-width="0.55"/>
<rect x="154.275" y="125.275" width="6.45" height="14.45" rx="3.225" stroke="#CB9491" stroke-width="0.55"/>
<rect x="154.275" y="143.275" width="6.45" height="14.45" rx="3.225" stroke="#CB9491" stroke-width="0.55"/>
<rect x="154.275" y="161.275" width="6.45" height="14.45" rx="3.225" stroke="#CB9491" stroke-width="0.55"/>
<rect x="154.275" y="179.275" width="6.45" height="14.45" rx="3.225" stroke="#CB9491" stroke-width="0.55"/>
<rect x="154.275" y="197.275" width="6.45" height="14.45" rx="3.225" stroke="#CB9491" stroke-width="0.55"/>
<rect x="250.275" y="71.275" width="6.45" height="14.45" rx="3.225" stroke="#CB9491" stroke-width="0.55"/>
<rect x="250.275" y="89.275" width="6.45" height="14.45" rx="3.225" stroke="#CB9491" stroke-width="0.55"/>
<rect x="250.275" y="107.275" width="6.45" height="14.45" rx="3.225" stroke="#CB9491" stroke-width="0.55"/>
<rect x="250.275" y="125.275" width="6.45" height="14.45" rx="3.225" stroke="#CB9491" stroke-width="0.55"/>
<rect x="250.275" y="143.275" width="6.45" height="14.45" rx="3.225" stroke="#CB9491" stroke-width="0.55"/>
<rect x="250.275" y="161.275" width="6.45" height="14.45" rx="3.225" stroke="#CB9491" stroke-width="0.55"/>
<rect x="250.275" y="179.275" width="6.45" height="14.45" rx="3.225" stroke="#CB9491" stroke-width="0.55"/>
<rect x="250.275" y="197.275" width="6.45" height="14.45" rx="3.225" stroke="#CB9491" stroke-width="0.55"/>
<rect x="344.275" y="71.275" width="6.45" height="14.45" rx="3.225" stroke="#CB9491" stroke-width="0.55"/>
<rect x="344.275" y="89.275" width="6.45" height="14.45" rx="3.225" stroke="#CB9491" stroke-width="0.55"/>
<rect x="344.275" y="107.275" width="6.45" height="14.45" rx="3.225" stroke="#CB9491" stroke-width="0.55"/>
<rect x="344.275" y="125.275" width="6.45" height="14.45" rx="3.225" stroke="#CB9491" stroke-width="0.55"/>
<rect x="344.275" y="143.275" width="6.45" height="14.45" rx="3.225" stroke="#CB9491" stroke-width="0.55"/>
<rect x="344.275" y="161.275" width="6.45" height="14.45" rx="3.225" stroke="#CB9491" stroke-width="0.55"/>
<rect x="344.275" y="179.275" width="6.45" height="14.45" rx="3.225" stroke="#CB9491" stroke-width="0.55"/>
<rect x="344.275" y="197.275" width="6.45" height="14.45" rx="3.225" stroke="#CB9491" stroke-width="0.55"/>
<rect x="170.275" y="71.275" width="7.45" height="14.45" rx="3.725" stroke="#CB9491" stroke-width="0.55"/>
<rect x="170.275" y="89.275" width="7.45" height="14.45" rx="3.725" stroke="#CB9491" stroke-width="0.55"/>
<rect x="170.275" y="107.275" width="7.45" height="14.45" rx="3.725" stroke="#CB9491" stroke-width="0.55"/>
<rect x="170.275" y="125.275" width="7.45" height="14.45" rx="3.725" stroke="#CB9491" stroke-width="0.55"/>
<rect x="170.275" y="143.275" width="7.45" height="14.45" rx="3.725" stroke="#CB9491" stroke-width="0.55"/>
<rect x="170.275" y="161.275" width="7.45" height="14.45" rx="3.725" stroke="#CB9491" stroke-width="0.55"/>
<rect x="170.275" y="179.275" width="7.45" height="14.45" rx="3.725" stroke="#CB9491" stroke-width="0.55"/>
<rect x="170.275" y="197.275" width="7.45" height="14.45" rx="3.725" stroke="#CB9491" stroke-width="0.55"/>
<rect x="266.275" y="71.275" width="7.45" height="14.45" rx="3.725" stroke="#CB9491" stroke-width="0.55"/>
<rect x="266.275" y="89.275" width="7.45" height="14.45" rx="3.725" stroke="#CB9491" stroke-width="0.55"/>
<rect x="266.275" y="107.275" width="7.45" height="14.45" rx="3.725" stroke="#CB9491" stroke-width="0.55"/>
<rect x="266.275" y="125.275" width="7.45" height="14.45" rx="3.725" stroke="#CB9491" stroke-width="0.55"/>
<rect x="266.275" y="143.275" width="7.45" height="14.45" rx="3.725" stroke="#CB9491" stroke-width="0.55"/>
<rect x="266.275" y="161.275" width="7.45" height="14.45" rx="3.725" stroke="#CB9491" stroke-width="0.55"/>
<rect x="266.275" y="179.275" width="7.45" height="14.45" rx="3.725" stroke="#CB9491" stroke-width="0.55"/>
<rect x="266.275" y="197.275" width="7.45" height="14.45" rx="3.725" stroke="#CB9491" stroke-width="0.55"/>
<rect x="187.275" y="71.275" width="6.45" height="14.45" rx="3.225" stroke="#CB9491" stroke-width="0.55"/>
<rect x="187.275" y="89.275" width="6.45" height="14.45" rx="3.225" stroke="#CB9491" stroke-width="0.55"/>
<rect x="187.275" y="107.275" width="6.45" height="14.45" rx="3.225" stroke="#CB9491" stroke-width="0.55"/>
<rect x="187.275" y="125.275" width="6.45" height="14.45" rx="3.225" stroke="#CB9491" stroke-width="0.55"/>
<rect x="187.275" y="143.275" width="6.45" height="14.45" rx="3.225" stroke="#CB9491" stroke-width="0.55"/>
<rect x="187.275" y="161.275" width="6.45" height="14.45" rx="3.225" stroke="#CB9491" stroke-width="0.55"/>
<rect x="187.275" y="179.275" width="6.45" height="14.45" rx="3.225" stroke="#CB9491" stroke-width="0.55"/>
<rect x="187.275" y="197.275" width="6.45" height="14.45" rx="3.225" stroke="#CB9491" stroke-width="0.55"/>
<rect x="283.275" y="71.275" width="6.45" height="14.45" rx="3.225" stroke="#CB9491" stroke-width="0.55"/>
<rect x="283.275" y="89.275" width="6.45" height="14.45" rx="3.225" stroke="#CB9491" stroke-width="0.55"/>
<rect x="283.275" y="107.275" width="6.45" height="14.45" rx="3.225" stroke="#CB9491" stroke-width="0.55"/>
<rect x="283.275" y="125.275" width="6.45" height="14.45" rx="3.225" stroke="#CB9491" stroke-width="0.55"/>
<rect x="283.275" y="143.275" width="6.45" height="14.45" rx="3.225" stroke="#CB9491" stroke-width="0.55"/>
<rect x="283.275" y="161.275" width="6.45" height="14.45" rx="3.225" stroke="#CB9491" stroke-width="0.55"/>
<rect x="283.275" y="179.275" width="6.45" height="14.45" rx="3.225" stroke="#CB9491" stroke-width="0.55"/>
<rect x="283.275" y="197.275" width="6.45" height="14.45" rx="3.225" stroke="#CB9491" stroke-width="0.55"/>
<rect x="204.275" y="71.275" width="6.45" height="14.45" rx="3.225" stroke="#CB9491" stroke-width="0.55"/>
<rect x="204.275" y="89.275" width="6.45" height="14.45" rx="3.225" stroke="#CB9491" stroke-width="0.55"/>
<rect x="204.275" y="107.275" width="6.45" height="14.45" rx="3.225" stroke="#CB9491" stroke-width="0.55"/>
<rect x="204.275" y="125.275" width="6.45" height="14.45" rx="3.225" stroke="#CB9491" stroke-width="0.55"/>
<rect x="204.275" y="143.275" width="6.45" height="14.45" rx="3.225" stroke="#CB9491" stroke-width="0.55"/>
<rect x="204.275" y="161.275" width="6.45" height="14.45" rx="3.225" stroke="#CB9491" stroke-width="0.55"/>
<rect x="204.275" y="179.275" width="6.45" height="14.45" rx="3.225" stroke="#CB9491" stroke-width="0.55"/>
<rect x="204.275" y="197.275" width="6.45" height="14.45" rx="3.225" stroke="#CB9491" stroke-width="0.55"/>
<rect x="300.275" y="71.275" width="6.45" height="14.45" rx="3.225" stroke="#CB9491" stroke-width="0.55"/>
<rect x="300.275" y="89.275" width="6.45" height="14.45" rx="3.225" stroke="#CB9491" stroke-width="0.55"/>
<rect x="300.275" y="107.275" width="6.45" height="14.45" rx="3.225" stroke="#CB9491" stroke-width="0.55"/>
<rect x="300.275" y="125.275" width="6.45" height="14.45" rx="3.225" stroke="#CB9491" stroke-width="0.55"/>
<rect x="300.275" y="143.275" width="6.45" height="14.45" rx="3.225" stroke="#CB9491" stroke-width="0.55"/>
<rect x="300.275" y="161.275" width="6.45" height="14.45" rx="3.225" stroke="#CB9491" stroke-width="0.55"/>
<rect x="300.275" y="179.275" width="6.45" height="14.45" rx="3.225" stroke="#CB9491" stroke-width="0.55"/>
<rect x="300.275" y="197.275" width="6.45" height="14.45" rx="3.225" stroke="#CB9491" stroke-width="0.55"/>
<path d="M140.988 62.192H140.31V58.598C140.294 58.614 140.206 58.668 140.046 58.76C139.89 58.852 139.674 58.968 139.398 59.108V58.478C139.59 58.39 139.764 58.288 139.92 58.172C140.076 58.056 140.23 57.918 140.382 57.758H140.826C140.89 57.758 140.932 57.77 140.952 57.794C140.976 57.814 140.988 57.856 140.988 57.92V62.192Z" fill="#CB9491"/>
<path d="M116.578 76.976V76.136H114.172V76.976H116.578ZM117.244 77.378C117.244 77.442 117.23 77.486 117.202 77.51C117.178 77.534 117.136 77.546 117.076 77.546H113.662C113.598 77.546 113.554 77.536 113.53 77.516C113.51 77.492 113.5 77.448 113.5 77.384V75.734C113.5 75.674 113.512 75.632 113.536 75.608C113.56 75.58 113.604 75.566 113.668 75.566H117.076C117.188 75.566 117.244 75.622 117.244 75.734V77.378ZM117.85 78.632H115.81V79.694H115.12V78.632H112.9V78.056H117.85V78.632ZM117.412 80.702H113.68C113.616 80.702 113.572 80.69 113.548 80.666C113.528 80.642 113.518 80.598 113.518 80.534V79.058H114.202V80.126H117.412V80.702ZM120.712 75.914H119.038V75.41H120.712V75.914ZM121.456 76.724H118.318V76.22H121.456V76.724ZM121.282 77.756C121.282 77.988 121.16 78.188 120.916 78.356C120.668 78.52 120.324 78.602 119.884 78.602C119.66 78.602 119.46 78.58 119.284 78.536C119.112 78.492 118.966 78.432 118.846 78.356C118.73 78.276 118.64 78.186 118.576 78.086C118.516 77.982 118.486 77.872 118.486 77.756C118.486 77.524 118.606 77.326 118.846 77.162C119.086 76.994 119.432 76.91 119.884 76.91C120.108 76.91 120.306 76.932 120.478 76.976C120.654 77.02 120.8 77.082 120.916 77.162C121.036 77.238 121.126 77.328 121.186 77.432C121.25 77.532 121.282 77.64 121.282 77.756ZM120.388 78.044C120.52 77.984 120.586 77.888 120.586 77.756C120.586 77.636 120.52 77.542 120.388 77.474C120.26 77.406 120.092 77.372 119.884 77.372C119.668 77.372 119.496 77.406 119.368 77.474C119.244 77.542 119.182 77.636 119.182 77.756C119.182 77.888 119.244 77.984 119.368 78.044C119.496 78.1 119.668 78.128 119.884 78.128C120.076 78.128 120.244 78.1 120.388 78.044ZM122.548 78.818H121.876V75.434H122.548V76.826H123.19V77.402H122.548V78.818ZM122.674 79.874C122.674 80.174 122.514 80.418 122.194 80.606C121.878 80.798 121.402 80.894 120.766 80.894C120.13 80.894 119.652 80.798 119.332 80.606C119.016 80.418 118.858 80.174 118.858 79.874C118.858 79.574 119.016 79.33 119.332 79.142C119.652 78.95 120.13 78.854 120.766 78.854C121.402 78.854 121.878 78.95 122.194 79.142C122.514 79.33 122.674 79.574 122.674 79.874ZM121.618 80.258C121.83 80.178 121.936 80.05 121.936 79.874C121.936 79.702 121.832 79.576 121.624 79.496C121.416 79.412 121.13 79.37 120.766 79.37C120.402 79.37 120.114 79.412 119.902 79.496C119.694 79.58 119.59 79.706 119.59 79.874C119.59 80.046 119.694 80.172 119.902 80.252C120.114 80.336 120.402 80.378 120.766 80.378C121.106 80.378 121.39 80.338 121.618 80.258Z" fill="#CB9491"/>
<path d="M112.135 26.768C111.98 26.6933 111.823 26.6053 111.663 26.504C111.503 26.4027 111.345 26.2907 111.191 26.168C111.041 26.0507 110.903 25.9253 110.775 25.792C110.652 25.6533 110.551 25.512 110.471 25.368C110.423 25.512 110.34 25.6613 110.223 25.816C110.111 25.9653 109.977 26.1093 109.823 26.248C109.673 26.392 109.513 26.5253 109.343 26.648C109.172 26.7707 109.007 26.872 108.847 26.952L108.135 26.344C108.38 26.232 108.615 26.096 108.839 25.936C109.063 25.776 109.26 25.5947 109.431 25.392C109.601 25.1893 109.737 24.9653 109.839 24.72C109.94 24.4693 109.991 24.1973 109.991 23.904V23.064H110.959V23.888C110.959 24.16 111.007 24.4133 111.103 24.648C111.204 24.8773 111.335 25.0853 111.495 25.272C111.66 25.464 111.847 25.6293 112.055 25.768C112.263 25.9067 112.479 26.0133 112.703 26.088L112.135 26.768ZM114.327 27.208H113.431V24.936H111.991V24.152H113.431V22.912H114.327V27.208ZM114.247 29.344C114.108 29.5307 113.932 29.688 113.719 29.816C113.489 29.944 113.217 30.04 112.903 30.104C112.593 30.168 112.255 30.2 111.887 30.2C111.519 30.2 111.18 30.168 110.871 30.104C110.561 30.04 110.295 29.944 110.071 29.816C109.841 29.688 109.663 29.5307 109.535 29.344C109.412 29.1573 109.351 28.9413 109.351 28.696C109.351 28.456 109.415 28.2453 109.543 28.064C109.676 27.8773 109.857 27.7173 110.087 27.584C110.316 27.456 110.585 27.3573 110.895 27.288C111.204 27.2187 111.537 27.184 111.895 27.184C112.263 27.184 112.601 27.2187 112.911 27.288C113.22 27.3573 113.489 27.456 113.719 27.584C113.943 27.712 114.119 27.8693 114.247 28.056C114.38 28.2427 114.447 28.456 114.447 28.696C114.447 28.9467 114.38 29.1627 114.247 29.344ZM113.031 29.264C113.169 29.1947 113.276 29.1093 113.351 29.008C113.431 28.912 113.471 28.8027 113.471 28.68C113.471 28.424 113.329 28.2293 113.047 28.096C112.764 27.9627 112.38 27.896 111.895 27.896C111.66 27.896 111.447 27.9147 111.255 27.952C111.063 27.984 110.897 28.0347 110.759 28.104C110.62 28.1733 110.511 28.256 110.431 28.352C110.356 28.448 110.319 28.5573 110.319 28.68C110.319 28.9307 110.465 29.128 110.759 29.272C111.052 29.4213 111.431 29.496 111.895 29.496C112.369 29.496 112.748 29.4187 113.031 29.264ZM135.057 29.344C134.918 29.5307 134.742 29.688 134.529 29.816C134.3 29.944 134.028 30.04 133.713 30.104C133.404 30.168 133.065 30.2 132.697 30.2C132.329 30.2 131.99 30.168 131.681 30.104C131.372 30.04 131.105 29.944 130.881 29.816C130.652 29.688 130.473 29.5307 130.345 29.344C130.222 29.1573 130.161 28.9413 130.161 28.696C130.161 28.456 130.225 28.2453 130.353 28.064C130.486 27.8773 130.668 27.7173 130.897 27.584C131.126 27.456 131.396 27.3573 131.705 27.288C132.014 27.2187 132.348 27.184 132.705 27.184C133.073 27.184 133.412 27.2187 133.721 27.288C134.03 27.3573 134.3 27.456 134.529 27.584C134.753 27.712 134.929 27.8693 135.057 28.056C135.19 28.2427 135.257 28.456 135.257 28.696C135.257 28.9467 135.19 29.1627 135.057 29.344ZM133.841 29.264C133.98 29.1947 134.086 29.1093 134.161 29.008C134.241 28.912 134.281 28.8027 134.281 28.68C134.281 28.424 134.14 28.2293 133.857 28.096C133.574 27.9627 133.19 27.896 132.705 27.896C132.47 27.896 132.257 27.9147 132.065 27.952C131.873 27.984 131.708 28.0347 131.569 28.104C131.43 28.1733 131.321 28.256 131.241 28.352C131.166 28.448 131.129 28.5573 131.129 28.68C131.129 28.9307 131.276 29.128 131.569 29.272C131.862 29.4213 132.241 29.496 132.705 29.496C133.18 29.496 133.558 29.4187 133.841 29.264ZM132.113 25.832V23.96H130.529V25.832H132.113ZM135.193 27.224H134.297V25.968H133.001V26.368C133.001 26.4533 132.982 26.512 132.945 26.544C132.913 26.576 132.857 26.592 132.777 26.592H129.865C129.78 26.592 129.721 26.5787 129.689 26.552C129.662 26.52 129.649 26.4613 129.649 26.376V23.424C129.649 23.344 129.665 23.288 129.697 23.256C129.729 23.2187 129.788 23.2 129.873 23.2H132.777C132.926 23.2 133.001 23.2747 133.001 23.424V23.808H134.297V22.912H135.193V27.224ZM134.297 25.224V24.544H133.001V25.232L134.297 25.224Z" fill="#CB9491"/>
<path d="M317.32 28.152H316.416V25.488H314.616V24.776H316.416V24.176H314.616V23.464H316.408V22.912H317.32V28.152ZM315.816 26.664C315.71 26.696 315.571 26.728 315.4 26.76C315.235 26.7867 315.054 26.8107 314.856 26.832C314.654 26.8587 314.44 26.8827 314.216 26.904C313.998 26.92 313.782 26.928 313.568 26.928C313.515 26.9333 313.406 26.936 313.24 26.936H312C311.915 26.936 311.856 26.92 311.824 26.888C311.798 26.856 311.784 26.7973 311.784 26.712V23.088H312.68V26.136L313.704 26.128C313.864 26.128 314.04 26.12 314.232 26.104C314.424 26.088 314.619 26.0693 314.816 26.048C315.008 26.0213 315.192 25.9947 315.368 25.968C315.544 25.9413 315.694 25.912 315.816 25.88V26.664ZM317.48 29.936H312.72C312.635 29.936 312.576 29.92 312.544 29.888C312.518 29.856 312.504 29.7973 312.504 29.712V27.624H313.416V29.168H317.48V29.936ZM343.372 24.48C343.249 24.688 343.049 24.8533 342.772 24.976C342.494 25.0987 342.148 25.16 341.732 25.16C341.172 25.16 340.734 25.0533 340.42 24.84C340.11 24.6267 339.956 24.352 339.956 24.016C339.956 23.856 339.996 23.7067 340.076 23.568C340.156 23.4293 340.27 23.3093 340.42 23.208C340.574 23.1013 340.761 23.0187 340.98 22.96C341.198 22.896 341.449 22.864 341.732 22.864C342.281 22.864 342.713 22.976 343.028 23.2C343.342 23.424 343.5 23.696 343.5 24.016C343.5 24.192 343.457 24.3467 343.372 24.48ZM342.388 24.368C342.521 24.2667 342.588 24.152 342.588 24.024C342.588 23.8907 342.521 23.7707 342.388 23.664C342.254 23.5573 342.036 23.504 341.732 23.504C341.428 23.504 341.206 23.5573 341.068 23.664C340.934 23.7707 340.868 23.8907 340.868 24.024C340.868 24.152 340.934 24.2667 341.068 24.368C341.206 24.4693 341.428 24.52 341.732 24.52C342.036 24.52 342.254 24.4693 342.388 24.368ZM344.252 25.872C343.916 25.92 343.54 25.9573 343.124 25.984C342.708 26.0053 342.273 26.0213 341.82 26.032V27.016H340.908V26.048H339.404V25.408H341.5C341.633 25.408 341.814 25.4053 342.044 25.4C342.273 25.3947 342.524 25.384 342.796 25.368C343.057 25.352 343.316 25.3333 343.572 25.312C343.833 25.2907 344.06 25.264 344.252 25.232V25.872ZM345.364 27.048H344.46V26.792H342.908V26.224H344.46V22.912H345.364V27.048ZM345.508 30.024H340.74C340.654 30.024 340.596 30.008 340.564 29.976C340.532 29.944 340.516 29.8853 340.516 29.8V28.568C340.516 28.488 340.532 28.432 340.564 28.4C340.596 28.3627 340.654 28.344 340.74 28.344H344.404V27.928H340.516V27.28H345.124C345.273 27.28 345.348 27.3547 345.348 27.504V28.704C345.348 28.7893 345.329 28.848 345.292 28.88C345.26 28.912 345.204 28.928 345.124 28.928H341.468V29.368H345.508V30.024ZM370.943 25.416C370.858 25.6347 370.732 25.8187 370.567 25.968C370.402 26.1227 370.202 26.2453 369.967 26.336C369.738 26.4213 369.484 26.464 369.207 26.464C368.935 26.464 368.682 26.4213 368.447 26.336C368.218 26.2453 368.02 26.1227 367.855 25.968C367.69 25.8133 367.559 25.6293 367.463 25.416C367.372 25.2027 367.327 24.968 367.327 24.712C367.327 24.472 367.372 24.2453 367.463 24.032C367.559 23.8187 367.69 23.6347 367.855 23.48C368.02 23.3253 368.218 23.2027 368.447 23.112C368.682 23.0213 368.935 22.976 369.207 22.976C369.484 22.976 369.738 23.0213 369.967 23.112C370.202 23.2027 370.402 23.3253 370.567 23.48C370.727 23.6347 370.852 23.8187 370.943 24.032C371.039 24.2453 371.087 24.472 371.087 24.712C371.087 24.968 371.039 25.2027 370.943 25.416ZM373.111 26.608H372.207V22.904H373.111V26.608ZM373.247 30.024H368.503C368.418 30.024 368.359 30.008 368.327 29.976C368.295 29.944 368.279 29.8853 368.279 29.8V28.368C368.279 28.288 368.295 28.232 368.327 28.2C368.359 28.1627 368.418 28.144 368.503 28.144H372.143V27.608H368.279V26.904H372.871C373.02 26.904 373.095 26.9787 373.095 27.128V28.552C373.095 28.6373 373.076 28.696 373.039 28.728C373.007 28.76 372.951 28.776 372.871 28.776H369.247V29.32H373.247V30.024ZM369.207 25.704C369.5 25.704 369.735 25.6107 369.911 25.424C370.087 25.232 370.175 24.9973 370.175 24.72C370.175 24.432 370.087 24.1973 369.911 24.016C369.735 23.8347 369.5 23.744 369.207 23.744C368.903 23.744 368.666 23.8347 368.495 24.016C368.324 24.1973 368.239 24.432 368.239 24.72C368.239 24.9973 368.324 25.232 368.495 25.424C368.666 25.6107 368.903 25.704 369.207 25.704Z" fill="#CB9491"/>
<path d="M112.811 44.064C112.843 43.8667 112.875 43.6453 112.907 43.4C112.939 43.1493 112.968 42.8933 112.995 42.632C113.016 42.36 113.035 42.0933 113.051 41.832C113.072 41.5707 113.083 41.32 113.083 41.08H110.307V40.32H113.811C113.96 40.32 114.035 40.3947 114.035 40.544C114.019 41.1893 113.987 41.8 113.939 42.376C113.891 42.952 113.824 43.5147 113.739 44.064H112.811ZM114.627 45.424C114.446 45.4507 114.222 45.4773 113.955 45.504C113.694 45.5253 113.395 45.5467 113.059 45.568C112.734 45.584 112.382 45.6 112.003 45.616C111.624 45.6267 111.232 45.632 110.827 45.632H109.947V44.856H111.243V42.576H112.139V44.856C112.272 44.856 112.448 44.8507 112.667 44.84C112.891 44.824 113.123 44.808 113.363 44.792C113.603 44.776 113.835 44.7573 114.059 44.736C114.288 44.7147 114.478 44.6907 114.627 44.664V45.424ZM115.723 47.072H114.827V39.904H115.723V42.792H116.683V43.592H115.723V47.072ZM124.084 41.872V40.832H120.884V41.872H124.084ZM125.788 44.112H119.188V43.328H122.02V42.608H120.204C120.118 42.608 120.06 42.5947 120.028 42.568C120.001 42.536 119.988 42.4773 119.988 42.392V40.312C119.988 40.232 120.004 40.176 120.036 40.144C120.068 40.1067 120.126 40.088 120.212 40.088H124.756C124.905 40.088 124.98 40.1627 124.98 40.312V42.384C124.98 42.4693 124.961 42.528 124.924 42.56C124.892 42.592 124.836 42.608 124.756 42.608H122.948V43.328H125.788V44.112ZM124.964 47.112H124.044V45.488H119.924V44.712H124.74C124.889 44.712 124.964 44.7867 124.964 44.936V47.112ZM134.405 46.344C134.266 46.5307 134.09 46.688 133.877 46.816C133.647 46.944 133.375 47.04 133.061 47.104C132.751 47.168 132.413 47.2 132.045 47.2C131.677 47.2 131.338 47.168 131.029 47.104C130.719 47.04 130.453 46.944 130.229 46.816C129.999 46.688 129.821 46.5307 129.693 46.344C129.57 46.1573 129.509 45.9413 129.509 45.696C129.509 45.456 129.573 45.2453 129.701 45.064C129.834 44.8773 130.015 44.7173 130.245 44.584C130.474 44.456 130.743 44.3573 131.053 44.288C131.362 44.2187 131.695 44.184 132.053 44.184C132.421 44.184 132.759 44.2187 133.069 44.288C133.378 44.3573 133.647 44.456 133.877 44.584C134.101 44.712 134.277 44.8693 134.405 45.056C134.538 45.2427 134.605 45.456 134.605 45.696C134.605 45.9467 134.538 46.1627 134.405 46.344ZM133.189 46.264C133.327 46.1947 133.434 46.1093 133.509 46.008C133.589 45.912 133.629 45.8027 133.629 45.68C133.629 45.424 133.487 45.2293 133.205 45.096C132.922 44.9627 132.538 44.896 132.053 44.896C131.818 44.896 131.605 44.9147 131.413 44.952C131.221 44.984 131.055 45.0347 130.917 45.104C130.778 45.1733 130.669 45.256 130.589 45.352C130.514 45.448 130.477 45.5573 130.477 45.68C130.477 45.9307 130.623 46.128 130.917 46.272C131.21 46.4213 131.589 46.496 132.053 46.496C132.527 46.496 132.906 46.4187 133.189 46.264ZM131.461 42.832V40.96H129.877V42.832H131.461ZM134.541 44.224H133.645V42.968H132.349V43.368C132.349 43.4533 132.33 43.512 132.293 43.544C132.261 43.576 132.205 43.592 132.125 43.592H129.213C129.127 43.592 129.069 43.5787 129.037 43.552C129.01 43.52 128.997 43.4613 128.997 43.376V40.424C128.997 40.344 129.013 40.288 129.045 40.256C129.077 40.2187 129.135 40.2 129.221 40.2H132.125C132.274 40.2 132.349 40.2747 132.349 40.424V40.808H133.645V39.912H134.541V44.224ZM133.645 42.224V41.544H132.349V42.232L133.645 42.224Z" fill="#CB9491"/>
<path d="M158.109 41.376C158.226 41.36 158.36 41.3467 158.509 41.336C158.664 41.32 158.781 41.3067 158.861 41.296C158.946 41.2853 158.997 41.28 159.013 41.28C159.088 41.28 159.16 41.336 159.229 41.448C159.282 41.5333 159.309 41.64 159.309 41.768C159.309 41.896 159.282 42.1573 159.229 42.552C159.133 43.2933 159.013 43.6613 158.869 43.656C158.842 43.656 158.816 43.648 158.789 43.632C158.725 43.5893 158.709 43.4267 158.741 43.144C158.741 43.112 158.754 42.9787 158.781 42.744C158.813 42.5093 158.832 42.344 158.837 42.248L158.893 41.76L158.101 41.824L157.301 41.872V41.672C157.301 41.5653 157.336 41.5013 157.405 41.48C157.48 41.4533 157.714 41.4187 158.109 41.376ZM157.533 42.648C157.554 42.6107 157.602 42.592 157.677 42.592C157.864 42.592 157.957 42.8267 157.957 43.296C157.957 43.6267 157.978 43.8267 158.021 43.896C158.053 43.9387 158.146 43.96 158.301 43.96C158.461 43.96 158.746 43.9467 159.157 43.92C159.648 43.8827 159.954 43.8693 160.077 43.88C160.205 43.8853 160.296 43.92 160.349 43.984C160.461 44.1333 160.432 44.2293 160.261 44.272L159.813 44.312C159.568 44.3173 158.978 44.36 158.045 44.44C157.4 44.504 156.837 44.5333 156.357 44.528C155.877 44.5227 155.602 44.488 155.533 44.424C155.485 44.3707 155.474 44.3013 155.501 44.216C155.522 44.168 155.6 44.136 155.733 44.12C155.866 44.0987 156.141 44.088 156.557 44.088H157.565L157.533 43.392C157.501 42.9227 157.501 42.6747 157.533 42.648ZM157.565 45.304C157.784 45.16 157.976 45.088 158.141 45.088C158.36 45.088 158.557 45.1387 158.733 45.24C158.909 45.336 159.042 45.4613 159.133 45.616C159.229 45.7653 159.277 45.9333 159.277 46.12C159.277 46.312 159.218 46.4907 159.101 46.656C158.834 47.0347 158.49 47.2507 158.069 47.304C157.69 47.336 157.408 47.264 157.221 47.088C157.04 46.9173 156.968 46.6533 157.005 46.296C157.026 46.04 157.077 45.8427 157.157 45.704C157.242 45.56 157.378 45.4267 157.565 45.304ZM158.533 45.656C158.288 45.5227 158.034 45.544 157.773 45.72C157.517 45.8907 157.384 46.1253 157.373 46.424C157.373 46.5413 157.429 46.648 157.541 46.744C157.653 46.8453 157.776 46.896 157.909 46.896C158.026 46.896 158.181 46.8453 158.373 46.744C158.565 46.6427 158.696 46.5387 158.765 46.432C158.813 46.352 158.84 46.2827 158.845 46.224C158.85 46.1707 158.832 46.0907 158.789 45.984C158.714 45.8133 158.629 45.704 158.533 45.656ZM164.045 40.984C164.125 40.8827 164.213 40.8427 164.309 40.864C164.405 40.8853 164.477 40.96 164.525 41.088C164.589 41.2427 164.629 41.664 164.645 42.352C164.645 42.7627 164.635 43.056 164.613 43.232C164.597 43.408 164.565 43.544 164.517 43.64C164.469 43.7253 164.429 43.7893 164.397 43.832C164.371 43.8693 164.317 43.904 164.237 43.936C164.163 43.968 164.077 43.992 163.981 44.008C163.885 44.0187 163.733 44.0347 163.525 44.056C163.243 44.0773 163.059 44.0827 162.973 44.072C162.893 44.0613 162.811 44.0133 162.725 43.928C162.656 43.8587 162.611 43.7813 162.589 43.696C162.568 43.6053 162.557 43.4613 162.557 43.264C162.557 42.944 162.501 42.6347 162.389 42.336C162.261 42.0107 162.251 41.8213 162.357 41.768C162.448 41.7093 162.565 41.7973 162.709 42.032C162.741 42.0907 162.771 42.1573 162.797 42.232C162.861 42.376 162.915 42.472 162.957 42.52C163 42.5627 163.048 42.576 163.101 42.56C163.197 42.528 163.405 42.512 163.725 42.512H164.213V41.96C164.213 41.592 164.165 41.3573 164.069 41.256C164.016 41.192 163.987 41.144 163.981 41.112C163.981 41.0747 164.003 41.032 164.045 40.984ZM163.901 42.976C163.629 42.9333 163.427 42.9333 163.293 42.976C163.165 43.0133 163.08 43.1093 163.037 43.264C163.005 43.3547 163.003 43.4293 163.029 43.488C163.061 43.5413 163.12 43.5787 163.205 43.6C163.291 43.616 163.411 43.616 163.565 43.6C163.736 43.584 163.867 43.5627 163.957 43.536C164.048 43.5093 164.112 43.472 164.149 43.424C164.192 43.3707 164.213 43.3013 164.213 43.216C164.213 43.1413 164.192 43.088 164.149 43.056C164.107 43.024 164.024 42.9973 163.901 42.976ZM162.845 44.632C164.195 44.5733 165.027 44.5467 165.341 44.552C165.661 44.552 165.845 44.5947 165.893 44.68C165.957 44.7813 165.965 44.8533 165.917 44.896C165.869 44.944 165.576 44.9707 165.037 44.976L164.221 45.008L164.165 45.264C164.123 45.4347 164.123 45.8747 164.165 46.584L164.221 47.648H164.013C163.869 47.648 163.795 47.624 163.789 47.576C163.789 47.4853 163.773 47.136 163.741 46.528C163.72 45.8613 163.696 45.4453 163.669 45.28L163.629 45.008L162.525 45.064C162.456 45.064 162.357 45.0667 162.229 45.072C161.536 45.104 161.131 45.1173 161.013 45.112C160.896 45.1013 160.837 45.0533 160.837 44.968C160.832 44.952 160.829 44.9387 160.829 44.928C160.808 44.8 160.808 44.736 160.829 44.736C160.856 44.7307 161.528 44.696 162.845 44.632ZM168.719 41.736C168.74 41.6133 168.788 41.5093 168.863 41.424C168.943 41.3387 169.007 41.296 169.055 41.296C169.113 41.3067 169.183 41.3493 169.263 41.424C169.305 41.4667 169.351 41.5173 169.399 41.576C169.447 41.6347 169.497 41.704 169.551 41.784C169.657 41.9387 169.761 42.1093 169.863 42.296C169.98 42.5093 170.052 42.6213 170.079 42.632C170.089 42.6373 170.097 42.6453 170.103 42.656C170.108 42.6667 170.111 42.6773 170.111 42.688C170.116 42.6933 170.119 42.704 170.119 42.72C170.119 42.7467 170.172 42.8453 170.279 43.016C170.391 43.1813 170.463 43.2747 170.495 43.296C170.511 43.3013 170.545 43.296 170.599 43.28C170.625 43.2693 170.649 43.2587 170.671 43.248C170.697 43.2373 170.721 43.224 170.743 43.208C170.791 43.176 170.815 43.152 170.815 43.136C170.815 43.1147 170.852 43.088 170.927 43.056C170.996 43.0133 171.177 42.8507 171.471 42.568C171.764 42.28 171.996 42.0347 172.167 41.832C172.311 41.6667 172.415 41.5493 172.479 41.48C172.548 41.4053 172.604 41.3573 172.647 41.336C172.695 41.3093 172.745 41.296 172.799 41.296C172.927 41.296 173.001 41.352 173.023 41.464C173.033 41.5013 173.041 41.568 173.047 41.664C173.052 41.76 173.057 41.8827 173.063 42.032C173.073 42.1813 173.081 42.36 173.087 42.568C173.108 43.592 173.116 44.6107 173.111 45.624C173.111 45.9653 173.108 46.248 173.103 46.472C173.103 46.7013 173.1 46.8747 173.095 46.992C173.089 47.1147 173.084 47.184 173.079 47.2C173.009 47.232 172.916 47.232 172.799 47.2C172.767 47.168 172.745 47.0613 172.735 46.88C172.724 46.704 172.711 46.176 172.695 45.296C172.689 44.6933 172.681 44.192 172.671 43.792C172.66 43.3867 172.649 43.0507 172.639 42.784C172.633 42.5173 172.625 42.328 172.615 42.216C172.609 42.1627 172.604 42.1227 172.599 42.096C172.599 42.064 172.596 42.048 172.591 42.048C172.564 42.064 172.431 42.2027 172.191 42.464C171.94 42.7413 171.724 42.9547 171.543 43.104C171.511 43.1307 171.476 43.16 171.439 43.192C171.401 43.224 171.359 43.2587 171.311 43.296C171.225 43.376 171.175 43.4187 171.159 43.424C171.063 43.5093 170.967 43.5813 170.871 43.64C170.78 43.6933 170.692 43.7307 170.607 43.752C170.548 43.768 170.495 43.776 170.447 43.776C170.404 43.776 170.364 43.768 170.327 43.752C170.289 43.736 170.257 43.7093 170.231 43.672C170.161 43.5813 170.124 43.536 170.119 43.536C170.108 43.5253 170.095 43.5093 170.079 43.488C170.063 43.4667 170.044 43.44 170.023 43.408C170.001 43.3707 169.977 43.3307 169.951 43.288C169.865 43.1547 169.777 43.0133 169.687 42.864C169.66 42.816 169.633 42.7733 169.607 42.736C169.585 42.6933 169.564 42.656 169.543 42.624C169.527 42.5867 169.511 42.5547 169.495 42.528C169.399 42.3413 169.329 42.216 169.287 42.152C169.287 42.152 169.279 42.1467 169.263 42.136C169.252 42.1253 169.241 42.1147 169.231 42.104L169.215 42.08C169.199 42.08 169.177 42.1013 169.151 42.144C169.108 42.1973 169.095 42.712 169.111 43.688C169.132 45.432 169.177 46.376 169.247 46.52C169.284 46.6053 169.3 46.7147 169.295 46.848C169.295 46.912 169.287 46.9653 169.271 47.008C169.26 47.056 169.244 47.0933 169.223 47.12C169.191 47.1733 169.137 47.2053 169.063 47.216C169.036 47.216 169.012 47.2133 168.991 47.208C168.969 47.208 168.951 47.2027 168.935 47.192C168.919 47.1867 168.903 47.1787 168.887 47.168C168.86 47.1307 168.847 47.08 168.847 47.016C168.847 46.9467 168.831 46.8693 168.799 46.784C168.751 46.6187 168.713 45.8 168.687 44.328C168.676 43.8427 168.671 43.4213 168.671 43.064C168.671 42.7067 168.673 42.4187 168.679 42.2C168.689 41.9813 168.703 41.8267 168.719 41.736ZM174.398 41.52C174.43 41.504 174.513 41.4773 174.646 41.44C174.956 41.3707 175.257 41.3813 175.55 41.472C175.844 41.5573 176.081 41.712 176.262 41.936C176.31 42.0053 176.348 42.0667 176.374 42.12C176.406 42.1733 176.436 42.2293 176.462 42.288C176.473 42.32 176.484 42.3547 176.494 42.392C176.505 42.424 176.513 42.4587 176.518 42.496C176.524 42.528 176.526 42.5653 176.526 42.608C176.532 42.6507 176.537 42.6987 176.542 42.752C176.569 43.088 176.494 43.376 176.318 43.616C176.222 43.7387 176.174 43.808 176.174 43.824C176.174 43.84 176.265 43.8933 176.446 43.984C176.505 44.0107 176.564 44.0453 176.622 44.088C176.686 44.1307 176.75 44.1813 176.814 44.24C176.878 44.2933 176.945 44.3547 177.014 44.424C177.084 44.488 177.14 44.5493 177.182 44.608C177.23 44.6613 177.265 44.7093 177.286 44.752C177.313 44.7893 177.326 44.8213 177.326 44.848C177.326 44.928 177.337 44.992 177.358 45.04C177.369 45.0827 177.374 45.1413 177.374 45.216C177.374 45.2907 177.366 45.384 177.35 45.496C177.318 45.72 177.273 45.8853 177.214 45.992C177.145 46.1307 177.07 46.2587 176.99 46.376C176.91 46.4933 176.825 46.6 176.734 46.696C176.729 46.7067 176.718 46.7147 176.702 46.72C176.692 46.7307 176.678 46.744 176.662 46.76C176.625 46.7867 176.582 46.8133 176.534 46.84C176.492 46.8667 176.441 46.896 176.382 46.928C176.329 46.9653 176.276 46.9947 176.222 47.016L176.046 47.096C175.988 47.1227 175.937 47.1413 175.894 47.152C175.788 47.1893 175.681 47.2107 175.574 47.216C175.473 47.2267 175.273 47.2267 174.974 47.216C174.644 47.2107 174.332 47.1867 174.038 47.144C173.75 47.1067 173.566 47.0667 173.486 47.024C173.342 46.944 173.321 46.816 173.422 46.64C173.465 46.5653 173.492 46.3893 173.502 46.112C173.513 45.84 173.545 44.824 173.598 43.064C173.609 42.5093 173.62 42.1707 173.63 42.048C173.636 41.9893 173.644 41.9413 173.654 41.904C173.67 41.8667 173.689 41.8427 173.71 41.832C173.769 41.7893 173.83 41.76 173.894 41.744C173.969 41.728 174.046 41.6907 174.126 41.632C174.19 41.584 174.238 41.56 174.27 41.56C174.281 41.56 174.292 41.56 174.302 41.56C174.318 41.5547 174.332 41.5493 174.342 41.544C174.358 41.5333 174.377 41.5253 174.398 41.52ZM175.782 42.072C175.745 42.04 175.7 42.008 175.646 41.976C175.593 41.944 175.529 41.9173 175.454 41.896C175.342 41.8533 175.23 41.8293 175.118 41.824C175.006 41.8187 174.892 41.832 174.774 41.864C174.657 41.8907 174.537 41.9333 174.414 41.992L174.27 42.08C174.244 42.1013 174.22 42.128 174.198 42.16C174.182 42.176 174.172 42.1947 174.166 42.216C174.161 42.232 174.158 42.248 174.158 42.264C174.153 42.3013 174.15 42.352 174.15 42.416C174.15 42.48 174.142 42.5333 174.126 42.576C174.116 42.6187 174.1 42.6507 174.078 42.672V42.68C174.062 42.7013 174.049 42.7333 174.038 42.776C174.028 42.8187 174.02 42.872 174.014 42.936C174.014 42.9947 174.017 43.064 174.022 43.144C174.028 43.384 174.02 43.5627 173.998 43.68C173.988 43.744 173.988 43.7947 173.998 43.832C174.014 43.8693 174.038 43.8907 174.07 43.896C174.14 43.912 174.316 43.8827 174.598 43.808C174.716 43.7813 174.892 43.768 175.126 43.768C175.169 43.768 175.206 43.768 175.238 43.768C175.276 43.768 175.308 43.768 175.334 43.768C175.361 43.7627 175.385 43.76 175.406 43.76C175.428 43.7547 175.446 43.752 175.462 43.752C175.516 43.7413 175.582 43.7067 175.662 43.648C175.897 43.472 176.044 43.2827 176.102 43.08C176.166 42.872 176.137 42.6507 176.014 42.416C175.94 42.256 175.862 42.1413 175.782 42.072ZM176.278 44.4C176.246 44.4 176.169 44.3707 176.046 44.312C175.924 44.2533 175.812 44.224 175.71 44.224C175.684 44.224 175.657 44.2267 175.63 44.232C175.604 44.2373 175.577 44.2427 175.55 44.248C175.524 44.2533 175.494 44.264 175.462 44.28C175.436 44.2907 175.406 44.3013 175.374 44.312C175.316 44.344 175.265 44.368 175.222 44.384C175.18 44.3947 175.145 44.4 175.118 44.4C175.06 44.4 174.972 44.4187 174.854 44.456C174.828 44.4613 174.798 44.4693 174.766 44.48C174.74 44.4907 174.71 44.4987 174.678 44.504C174.652 44.5093 174.62 44.5173 174.582 44.528C174.55 44.5333 174.516 44.5387 174.478 44.544C174.446 44.5493 174.412 44.5547 174.374 44.56C174.172 44.5973 174.054 44.6267 174.022 44.648C173.99 44.6693 173.969 45.0053 173.958 45.656C173.958 45.784 173.958 45.8987 173.958 46C173.958 46.1067 173.958 46.2 173.958 46.28C173.958 46.3653 173.958 46.4347 173.958 46.488C173.964 46.5467 173.969 46.5893 173.974 46.616C173.98 46.648 173.985 46.6693 173.99 46.68C174.006 46.6907 174.057 46.7013 174.142 46.712C174.265 46.7333 174.406 46.7547 174.566 46.776C174.753 46.7973 174.972 46.8027 175.222 46.792C175.478 46.7813 175.678 46.7547 175.822 46.712C176.153 46.616 176.425 46.4133 176.638 46.104C176.702 46.0133 176.756 45.9333 176.798 45.864C176.841 45.7893 176.873 45.728 176.894 45.68C176.932 45.5733 176.95 45.4533 176.95 45.32C176.95 45.1653 176.916 45.0267 176.846 44.904C176.777 44.776 176.673 44.6613 176.534 44.56C176.385 44.4533 176.3 44.4 176.278 44.4ZM177.68 41.64C177.584 41.5547 177.595 41.4587 177.712 41.352C177.744 41.3093 177.803 41.2853 177.888 41.28C177.979 41.2693 178.208 41.264 178.576 41.264C179.093 41.264 179.379 41.28 179.432 41.312C179.491 41.3387 180.016 41.36 181.008 41.376C181.211 41.376 181.389 41.3787 181.544 41.384C181.704 41.384 181.845 41.3867 181.968 41.392C182.091 41.3973 182.192 41.4027 182.272 41.408C182.357 41.408 182.421 41.4107 182.464 41.416C182.512 41.4213 182.541 41.4267 182.552 41.432C182.643 41.512 182.624 41.616 182.496 41.744L182.392 41.848L181.592 41.816C181.203 41.8 180.965 41.7973 180.88 41.808C180.843 41.808 180.808 41.816 180.776 41.832C180.744 41.8427 180.72 41.8587 180.704 41.88C180.672 41.9173 180.651 41.9947 180.64 42.112C180.635 42.2293 180.635 42.5387 180.64 43.04C180.651 43.28 180.661 43.5413 180.672 43.824C180.683 44.1013 180.693 44.3733 180.704 44.64C180.72 44.9067 180.733 45.1573 180.744 45.392C180.76 45.6213 180.776 45.816 180.792 45.976C180.797 46.024 180.803 46.0667 180.808 46.104C180.819 46.1467 180.824 46.1813 180.824 46.208C180.829 46.2347 180.835 46.256 180.84 46.272C180.861 46.3627 180.872 46.4533 180.872 46.544C180.872 46.6453 180.891 46.7307 180.928 46.8C180.955 46.864 180.957 46.9333 180.936 47.008C180.915 47.0827 180.872 47.1413 180.808 47.184C180.76 47.216 180.728 47.2293 180.712 47.224C180.707 47.2187 180.699 47.2133 180.688 47.208C180.683 47.208 180.675 47.2027 180.664 47.192C180.659 47.1867 180.648 47.1787 180.632 47.168C180.621 47.1627 180.611 47.152 180.6 47.136C180.52 47.0613 180.464 46.904 180.432 46.664C180.357 46.1733 180.28 44.888 180.2 42.808C180.179 42.4507 180.184 42.2213 180.216 42.12C180.227 42.0933 180.235 42.0693 180.24 42.048C180.245 42.0213 180.248 42 180.248 41.984C180.248 41.9627 180.245 41.944 180.24 41.928C180.235 41.912 180.227 41.8987 180.216 41.888C180.205 41.8773 180.192 41.8667 180.176 41.856C180.069 41.808 179.549 41.7627 178.616 41.72C178.045 41.6933 177.733 41.6667 177.68 41.64ZM182.89 42.024C182.901 41.8267 182.909 41.6773 182.914 41.576C182.925 41.4693 182.933 41.4107 182.938 41.4C182.949 41.384 182.965 41.3733 182.986 41.368C183.008 41.3627 183.034 41.3573 183.066 41.352C183.125 41.352 183.184 41.3627 183.242 41.384C183.253 41.384 183.264 41.4213 183.274 41.496C183.285 41.5707 183.29 41.6773 183.29 41.816C183.301 42.0987 183.306 42.7973 183.306 43.912C183.306 45.592 183.328 46.4827 183.37 46.584C183.466 46.8187 183.456 47 183.338 47.128C183.285 47.192 183.234 47.224 183.186 47.224C183.138 47.224 183.085 47.192 183.026 47.128C182.984 47.0907 182.954 47.024 182.938 46.928C182.928 46.832 182.912 46.616 182.89 46.28C182.848 45.608 182.84 44.4293 182.866 42.744C182.872 42.4613 182.88 42.2213 182.89 42.024ZM189.765 41.248C189.829 41.1893 189.909 41.176 190.005 41.208C190.107 41.2347 190.195 41.2987 190.269 41.4C190.52 41.6987 190.584 43.008 190.461 45.328C190.408 46.4053 190.365 47.048 190.333 47.256C190.301 47.464 190.232 47.568 190.125 47.568C190.045 47.568 189.997 47.5387 189.981 47.48C189.965 47.4267 189.957 47.2827 189.957 47.048C189.957 46.6427 189.992 45.912 190.061 44.856C190.168 43.0213 190.093 41.9627 189.837 41.68C189.768 41.6107 189.725 41.5333 189.709 41.448C189.699 41.3573 189.717 41.2907 189.765 41.248ZM189.021 42.488C189.08 42.4293 189.147 42.4133 189.221 42.44C189.296 42.4667 189.363 42.528 189.421 42.624C189.501 42.7467 189.541 43.1253 189.541 43.76C189.541 44.3413 189.52 44.7413 189.477 44.96C189.435 45.1787 189.36 45.288 189.253 45.288C189.205 45.288 189.168 45.2773 189.141 45.256C189.12 45.2293 189.104 45.184 189.093 45.12C189.088 45.056 189.085 44.9467 189.085 44.792V44.288L188.621 44.272C188.413 44.256 188.28 44.2373 188.221 44.216C188.163 44.1947 188.133 44.152 188.133 44.088C188.133 44.0453 188.139 44.0107 188.149 43.984C188.165 43.9573 188.2 43.9333 188.253 43.912C188.307 43.8907 188.371 43.872 188.445 43.856C188.525 43.84 188.637 43.8187 188.781 43.792C188.957 43.7653 189.059 43.736 189.085 43.704C189.112 43.672 189.125 43.5627 189.125 43.376C189.125 43.1307 189.099 42.9947 189.045 42.968C189.003 42.936 188.976 42.8587 188.965 42.736C188.96 42.6133 188.979 42.5307 189.021 42.488ZM187.605 42.808C187.781 42.776 187.901 42.7653 187.965 42.776C188.029 42.7813 188.085 42.8133 188.133 42.872C188.187 42.9413 188.179 43.0213 188.109 43.112C188.045 43.1973 187.704 43.2587 187.085 43.296L186.149 43.336V43.144C186.149 43.048 186.181 42.9867 186.245 42.96C186.309 42.9333 186.493 42.9067 186.797 42.88C187.229 42.8533 187.499 42.8293 187.605 42.808ZM187.221 43.704C187.248 43.6773 187.376 43.672 187.605 43.688C187.824 43.7093 187.939 43.7627 187.949 43.848C187.965 43.8907 187.963 43.928 187.941 43.96C187.92 43.9867 187.88 44.0133 187.821 44.04C187.768 44.0667 187.696 44.0907 187.605 44.112C187.52 44.1333 187.405 44.1493 187.261 44.16L186.845 44.208L186.829 44.672L186.805 45.136L187.477 45.128C187.765 45.128 187.949 45.136 188.029 45.152C188.109 45.1627 188.16 45.2053 188.181 45.28C188.219 45.3973 188.176 45.4773 188.053 45.52C187.936 45.5573 187.669 45.576 187.253 45.576C187.045 45.576 186.875 45.568 186.741 45.552C186.608 45.536 186.501 45.512 186.421 45.48C186.341 45.448 186.291 45.408 186.269 45.36C186.248 45.312 186.251 45.2533 186.277 45.184C186.325 45.0347 186.355 44.8587 186.365 44.656C186.381 44.448 186.365 44.3307 186.317 44.304C186.269 44.2667 186.24 44.1787 186.229 44.04C186.224 43.9013 186.248 43.832 186.301 43.832C186.867 43.7893 187.173 43.7467 187.221 43.704ZM194.307 41.376C194.333 41.328 194.365 41.2907 194.403 41.264C194.445 41.232 194.483 41.2107 194.515 41.2C194.552 41.1893 194.587 41.1893 194.619 41.2C194.656 41.2053 194.683 41.2213 194.699 41.248C194.72 41.2747 194.731 41.3147 194.731 41.368C194.731 41.48 194.669 41.64 194.547 41.848L194.355 42.168L194.667 42.488C194.827 42.648 194.971 42.8587 195.099 43.12C195.232 43.376 195.304 43.576 195.315 43.72C195.315 43.848 195.272 43.9467 195.187 44.016C195.123 44.0587 195.075 44.0773 195.043 44.072C195.016 44.0613 194.979 44.024 194.931 43.96C194.851 43.864 194.811 43.7573 194.811 43.64C194.811 43.528 194.749 43.3627 194.627 43.144C194.504 42.9253 194.392 42.7867 194.291 42.728C194.227 42.6907 194.16 42.6987 194.091 42.752C194.021 42.8 193.888 42.9307 193.691 43.144C193.301 43.592 193.053 43.7573 192.947 43.64C192.92 43.6187 192.907 43.5787 192.907 43.52C192.907 43.4187 193.04 43.224 193.307 42.936C193.568 42.6587 193.781 42.36 193.947 42.04C194.107 41.7093 194.227 41.488 194.307 41.376ZM195.595 45C196.917 44.904 197.603 44.9173 197.651 45.04C197.672 45.0773 197.653 45.128 197.595 45.192C197.493 45.2827 197.355 45.3413 197.179 45.368C197.008 45.3893 196.565 45.416 195.851 45.448C195.195 45.4693 194.272 45.512 193.083 45.576C192.624 45.5973 192.261 45.6107 191.995 45.616C191.733 45.6213 191.517 45.6133 191.347 45.592C191.176 45.5653 191.061 45.5307 191.003 45.488C190.949 45.44 190.923 45.3733 190.923 45.288C190.923 45.0373 191.061 44.9813 191.339 45.12C191.435 45.1733 191.901 45.1893 192.739 45.168C193.576 45.1467 194.528 45.0907 195.595 45ZM201.815 41.352C202.013 41.304 202.138 41.2853 202.191 41.296C202.25 41.3067 202.306 41.3573 202.359 41.448C202.386 41.512 202.399 41.568 202.399 41.616C202.405 41.6587 202.373 41.696 202.303 41.728C202.239 41.7547 202.151 41.7787 202.039 41.8C201.927 41.816 201.767 41.8267 201.559 41.832C201.085 41.864 200.837 41.8987 200.815 41.936C200.799 41.9733 200.815 42.072 200.863 42.232C200.911 42.344 200.962 42.4053 201.015 42.416C201.074 42.4267 201.255 42.4187 201.559 42.392C201.831 42.3707 202.007 42.3653 202.087 42.376C202.167 42.3867 202.218 42.416 202.239 42.464C202.282 42.5813 202.253 42.664 202.151 42.712C202.055 42.76 201.858 42.792 201.559 42.808C201.207 42.8293 201.01 42.8507 200.967 42.872C200.946 42.9147 200.922 43.048 200.895 43.272L200.839 43.64L201.615 43.696C202.218 43.7387 202.519 43.8133 202.519 43.92C202.519 43.9467 202.498 43.9813 202.455 44.024C202.391 44.088 202.058 44.128 201.455 44.144C201.279 44.1333 201.127 44.1333 200.999 44.144C200.871 44.1547 200.767 44.1493 200.687 44.128C200.607 44.1067 200.543 44.0907 200.495 44.08C200.447 44.064 200.415 44.0267 200.399 43.968C200.389 43.9093 200.383 43.8507 200.383 43.792C200.389 43.728 200.402 43.64 200.423 43.528C200.477 43.2773 200.474 43.0533 200.415 42.856C200.367 42.68 200.378 42.5253 200.447 42.392C200.506 42.296 200.527 42.2133 200.511 42.144C200.495 42.0693 200.442 41.968 200.351 41.84C200.303 41.7707 200.277 41.7093 200.271 41.656C200.271 41.6027 200.295 41.56 200.343 41.528C200.391 41.496 200.466 41.472 200.567 41.456C200.674 41.4347 200.805 41.424 200.959 41.424C201.375 41.4187 201.661 41.3947 201.815 41.352ZM198.087 45.36C198.119 45.2693 198.21 45.2427 198.359 45.28C198.487 45.312 199.551 45.328 201.551 45.328L204.511 45.304V45.52V45.72L201.591 45.76C199.602 45.7707 198.535 45.768 198.391 45.752C198.103 45.72 198.002 45.5893 198.087 45.36Z" fill="#544B4A"/>
<path d="M387.352 20.2C387.501 20.2 387.576 20.2747 387.576 20.424C387.48 21.3147 387.17 22.0587 386.648 22.656C386.125 23.248 385.365 23.7067 384.368 24.032L383.808 23.376C385.349 22.96 386.264 22.1573 386.552 20.968H384.2V20.2H387.352ZM389.552 23.96H388.648V19.904H389.552V21.488H390.488V22.248H389.552V23.96ZM388.664 26.248V24.992H385.784V26.248H388.664ZM389.56 26.768C389.56 26.8533 389.541 26.912 389.504 26.944C389.472 26.976 389.416 26.992 389.336 26.992H385.112C385.026 26.992 384.968 26.976 384.936 26.944C384.904 26.912 384.888 26.8533 384.888 26.768V24.464C384.888 24.384 384.904 24.328 384.936 24.296C384.968 24.2587 385.026 24.24 385.112 24.24H389.336C389.485 24.24 389.56 24.3147 389.56 24.464V26.768ZM390.288 44.088H383.688V43.304H386.52V42.568H384.728C384.642 42.568 384.584 42.552 384.552 42.52C384.525 42.488 384.512 42.4293 384.512 42.344V40.312C384.512 40.232 384.528 40.176 384.56 40.144C384.592 40.1067 384.65 40.088 384.736 40.088H389.472V40.848H385.432V41.816H389.544V42.568H387.448V43.304H390.288V44.088ZM389.464 47.112H388.544V45.464H384.424V44.688H389.24C389.389 44.688 389.464 44.7627 389.464 44.912V47.112Z" fill="#CB9491"/>
<path d="M158.888 62.192H156.176C156.112 62.192 156.068 62.18 156.044 62.156C156.024 62.136 156.014 62.094 156.014 62.03V61.64C156.11 61.548 156.228 61.434 156.368 61.298C156.508 61.158 156.654 61.008 156.806 60.848C156.962 60.684 157.116 60.514 157.268 60.338C157.424 60.158 157.562 59.982 157.682 59.81C157.806 59.638 157.906 59.476 157.982 59.324C158.058 59.168 158.096 59.03 158.096 58.91C158.1 58.67 158.04 58.496 157.916 58.388C157.792 58.28 157.626 58.226 157.418 58.226C157.214 58.226 157.05 58.298 156.926 58.442C156.806 58.582 156.746 58.792 156.746 59.072H156.05C156.05 58.852 156.086 58.656 156.158 58.484C156.23 58.308 156.326 58.16 156.446 58.04C156.57 57.916 156.714 57.822 156.878 57.758C157.046 57.69 157.226 57.656 157.418 57.656C157.61 57.656 157.788 57.684 157.952 57.74C158.12 57.792 158.266 57.87 158.39 57.974C158.514 58.074 158.612 58.2 158.684 58.352C158.756 58.504 158.792 58.676 158.792 58.868C158.792 59.044 158.756 59.222 158.684 59.402C158.612 59.582 158.518 59.76 158.402 59.936C158.286 60.112 158.156 60.284 158.012 60.452C157.872 60.616 157.73 60.772 157.586 60.92C157.442 61.064 157.306 61.196 157.178 61.316C157.054 61.436 156.952 61.538 156.872 61.622H158.888V62.192Z" fill="#CB9491"/>
<path d="M173.084 60.86C173.116 61.164 173.2 61.384 173.336 61.52C173.472 61.656 173.668 61.724 173.924 61.724C174.188 61.724 174.392 61.658 174.536 61.526C174.68 61.394 174.752 61.196 174.752 60.932C174.752 60.796 174.728 60.682 174.68 60.59C174.636 60.494 174.574 60.416 174.494 60.356C174.414 60.296 174.322 60.252 174.218 60.224C174.114 60.196 174.006 60.18 173.894 60.176H173.666C173.602 60.176 173.56 60.166 173.54 60.146C173.52 60.126 173.51 60.084 173.51 60.02V59.744C173.51 59.68 173.52 59.638 173.54 59.618C173.56 59.598 173.602 59.588 173.666 59.588H173.852C173.964 59.584 174.068 59.57 174.164 59.546C174.264 59.522 174.35 59.484 174.422 59.432C174.494 59.376 174.55 59.306 174.59 59.222C174.634 59.138 174.656 59.032 174.656 58.904C174.656 58.676 174.588 58.506 174.452 58.394C174.32 58.278 174.14 58.22 173.912 58.22C173.68 58.22 173.502 58.282 173.378 58.406C173.254 58.526 173.178 58.724 173.15 59H172.472C172.476 58.788 172.514 58.598 172.586 58.43C172.658 58.262 172.758 58.12 172.886 58.004C173.014 57.888 173.166 57.8 173.342 57.74C173.518 57.68 173.712 57.65 173.924 57.65C174.108 57.65 174.284 57.676 174.452 57.728C174.624 57.776 174.776 57.852 174.908 57.956C175.04 58.056 175.144 58.184 175.22 58.34C175.3 58.496 175.34 58.678 175.34 58.886C175.34 59.15 175.272 59.37 175.136 59.546C175 59.718 174.8 59.832 174.536 59.888C174.84 59.94 175.064 60.06 175.208 60.248C175.356 60.436 175.43 60.68 175.43 60.98C175.43 61.208 175.386 61.404 175.298 61.568C175.21 61.732 175.094 61.868 174.95 61.976C174.81 62.084 174.648 62.164 174.464 62.216C174.28 62.268 174.092 62.294 173.9 62.294C173.68 62.294 173.48 62.262 173.3 62.198C173.12 62.134 172.964 62.04 172.832 61.916C172.704 61.792 172.604 61.642 172.532 61.466C172.46 61.286 172.422 61.084 172.418 60.86H173.084Z" fill="#CB9491"/>
<path d="M190.796 60.686V58.838L190.802 58.676L189.572 60.686H190.796ZM191.456 62.192H190.784V61.256H189.014C188.95 61.256 188.906 61.246 188.882 61.226C188.862 61.202 188.852 61.158 188.852 61.094V60.812C188.852 60.736 188.874 60.67 188.918 60.614L190.622 57.818C190.642 57.786 190.67 57.758 190.706 57.734C190.742 57.706 190.774 57.692 190.802 57.692H191.294C191.358 57.692 191.4 57.704 191.42 57.728C191.444 57.748 191.456 57.79 191.456 57.854V60.686H192.098V61.256H191.456V62.192Z" fill="#CB9491"/>
<path d="M206.752 60.98C206.796 61.244 206.886 61.436 207.022 61.556C207.158 61.676 207.334 61.736 207.55 61.736C207.778 61.736 207.964 61.652 208.108 61.484C208.252 61.316 208.324 61.07 208.324 60.746C208.324 60.398 208.252 60.146 208.108 59.99C207.968 59.83 207.786 59.75 207.562 59.75C207.394 59.75 207.246 59.794 207.118 59.882C206.994 59.966 206.908 60.086 206.86 60.242C206.852 60.274 206.838 60.31 206.818 60.35C206.802 60.386 206.762 60.404 206.698 60.404H206.338C206.274 60.404 206.23 60.392 206.206 60.368C206.186 60.34 206.176 60.298 206.176 60.242L206.242 57.92C206.242 57.856 206.252 57.814 206.272 57.794C206.296 57.77 206.34 57.758 206.404 57.758H208.78V58.322H206.902L206.836 59.51C206.912 59.418 207.02 59.344 207.16 59.288C207.304 59.228 207.472 59.198 207.664 59.198C207.844 59.198 208.016 59.232 208.18 59.3C208.344 59.364 208.486 59.46 208.606 59.588C208.73 59.716 208.828 59.878 208.9 60.074C208.972 60.266 209.008 60.488 209.008 60.74C209.008 60.96 208.972 61.166 208.9 61.358C208.832 61.546 208.734 61.71 208.606 61.85C208.478 61.986 208.324 62.094 208.144 62.174C207.964 62.254 207.764 62.294 207.544 62.294C207.348 62.294 207.164 62.266 206.992 62.21C206.82 62.154 206.668 62.07 206.536 61.958C206.404 61.846 206.298 61.71 206.218 61.55C206.138 61.386 206.092 61.196 206.08 60.98H206.752Z" fill="#CB9491"/>
<path d="M236.496 61.73C236.76 61.73 236.962 61.64 237.102 61.46C237.246 61.276 237.318 61.04 237.318 60.752C237.318 60.616 237.3 60.488 237.264 60.368C237.232 60.248 237.182 60.146 237.114 60.062C237.046 59.974 236.962 59.906 236.862 59.858C236.762 59.806 236.644 59.78 236.508 59.78C236.392 59.78 236.286 59.804 236.19 59.852C236.094 59.9 236.01 59.966 235.938 60.05C235.87 60.13 235.816 60.226 235.776 60.338C235.736 60.45 235.716 60.57 235.716 60.698C235.716 61.01 235.786 61.26 235.926 61.448C236.066 61.636 236.256 61.73 236.496 61.73ZM237.258 58.958C237.246 58.714 237.174 58.532 237.042 58.412C236.914 58.292 236.754 58.232 236.562 58.232C236.378 58.232 236.226 58.288 236.106 58.4C235.986 58.508 235.888 58.64 235.812 58.796C235.74 58.952 235.686 59.114 235.65 59.282C235.618 59.45 235.598 59.592 235.59 59.708C235.694 59.568 235.838 59.458 236.022 59.378C236.21 59.294 236.412 59.252 236.628 59.252C236.836 59.252 237.024 59.29 237.192 59.366C237.36 59.438 237.502 59.542 237.618 59.678C237.738 59.81 237.83 59.97 237.894 60.158C237.958 60.342 237.99 60.544 237.99 60.764C237.99 60.972 237.956 61.17 237.888 61.358C237.824 61.542 237.73 61.704 237.606 61.844C237.482 61.98 237.33 62.088 237.15 62.168C236.974 62.252 236.774 62.294 236.55 62.294C236.378 62.294 236.218 62.268 236.07 62.216C235.922 62.168 235.788 62.1 235.668 62.012C235.548 61.928 235.444 61.828 235.356 61.712C235.272 61.592 235.206 61.464 235.158 61.328C235.098 61.16 235.054 60.984 235.026 60.8C235.002 60.612 234.99 60.38 234.99 60.104C234.99 59.708 235.028 59.358 235.104 59.054C235.184 58.75 235.294 58.496 235.434 58.292C235.574 58.088 235.74 57.934 235.932 57.83C236.124 57.726 236.332 57.674 236.556 57.674C236.944 57.674 237.26 57.786 237.504 58.01C237.748 58.23 237.894 58.546 237.942 58.958H237.258Z" fill="#CB9491"/>
<path d="M253.274 62.192H252.53L254.132 58.328H252.02V57.758H254.72C254.784 57.758 254.826 57.77 254.846 57.794C254.87 57.814 254.882 57.856 254.882 57.92V58.154C254.882 58.186 254.876 58.224 254.864 58.268C254.852 58.312 254.84 58.346 254.828 58.37L253.274 62.192Z" fill="#CB9491"/>
<path d="M270.56 59.426C270.708 59.314 270.782 59.14 270.782 58.904C270.782 58.684 270.708 58.514 270.56 58.394C270.416 58.274 270.23 58.214 270.002 58.214C269.774 58.214 269.586 58.274 269.438 58.394C269.294 58.514 269.222 58.684 269.222 58.904C269.222 59.136 269.294 59.31 269.438 59.426C269.582 59.542 269.77 59.6 270.002 59.6C270.222 59.6 270.408 59.542 270.56 59.426ZM270.614 61.526C270.762 61.39 270.836 61.202 270.836 60.962C270.836 60.83 270.812 60.716 270.764 60.62C270.72 60.52 270.658 60.438 270.578 60.374C270.502 60.31 270.414 60.264 270.314 60.236C270.214 60.204 270.11 60.188 270.002 60.188C269.894 60.188 269.79 60.204 269.69 60.236C269.59 60.264 269.5 60.31 269.42 60.374C269.344 60.438 269.282 60.52 269.234 60.62C269.19 60.716 269.168 60.83 269.168 60.962C269.168 61.202 269.24 61.39 269.384 61.526C269.532 61.658 269.738 61.724 270.002 61.724C270.266 61.724 270.47 61.658 270.614 61.526ZM271.028 59.792C270.964 59.856 270.882 59.9 270.782 59.924C270.87 59.952 270.958 59.994 271.046 60.05C271.134 60.106 271.212 60.178 271.28 60.266C271.348 60.35 271.404 60.45 271.448 60.566C271.492 60.678 271.514 60.806 271.514 60.95C271.514 61.162 271.476 61.35 271.4 61.514C271.324 61.678 271.218 61.818 271.082 61.934C270.95 62.05 270.792 62.138 270.608 62.198C270.424 62.258 270.222 62.288 270.002 62.288C269.778 62.288 269.574 62.258 269.39 62.198C269.206 62.138 269.046 62.05 268.91 61.934C268.778 61.818 268.674 61.678 268.598 61.514C268.526 61.35 268.49 61.162 268.49 60.95C268.49 60.766 268.534 60.596 268.622 60.44C268.71 60.28 268.82 60.152 268.952 60.056C269.056 59.984 269.148 59.938 269.228 59.918C269.136 59.894 269.048 59.854 268.964 59.798C268.88 59.742 268.806 59.672 268.742 59.588C268.678 59.5 268.628 59.4 268.592 59.288C268.556 59.172 268.538 59.042 268.538 58.898C268.538 58.706 268.574 58.534 268.646 58.382C268.722 58.226 268.824 58.094 268.952 57.986C269.084 57.878 269.238 57.796 269.414 57.74C269.594 57.684 269.79 57.656 270.002 57.656C270.21 57.656 270.404 57.684 270.584 57.74C270.764 57.796 270.918 57.878 271.046 57.986C271.178 58.094 271.28 58.226 271.352 58.382C271.428 58.534 271.466 58.706 271.466 58.898C271.466 59.09 271.422 59.264 271.334 59.42C271.246 59.572 271.144 59.696 271.028 59.792Z" fill="#CB9491"/>
<path d="M286.802 60.098C286.942 60.026 287.056 59.916 287.144 59.768C287.232 59.62 287.276 59.448 287.276 59.252C287.276 58.94 287.206 58.69 287.066 58.502C286.926 58.314 286.736 58.22 286.496 58.22C286.232 58.22 286.028 58.312 285.884 58.496C285.744 58.676 285.674 58.91 285.674 59.198C285.674 59.338 285.69 59.468 285.722 59.588C285.758 59.704 285.81 59.806 285.878 59.894C285.946 59.978 286.03 60.046 286.13 60.098C286.23 60.146 286.348 60.17 286.484 60.17C286.6 60.17 286.706 60.146 286.802 60.098ZM285.734 61.004C285.746 61.248 285.816 61.43 285.944 61.55C286.076 61.67 286.238 61.73 286.43 61.73C286.614 61.73 286.766 61.674 286.886 61.562C287.006 61.45 287.102 61.316 287.174 61.16C287.25 61.004 287.304 60.842 287.336 60.674C287.372 60.502 287.394 60.358 287.402 60.242C287.298 60.382 287.152 60.494 286.964 60.578C286.78 60.658 286.58 60.698 286.364 60.698C286.156 60.698 285.968 60.662 285.8 60.59C285.632 60.514 285.488 60.41 285.368 60.278C285.252 60.142 285.162 59.982 285.098 59.798C285.034 59.614 285.002 59.41 285.002 59.186C285.002 58.978 285.034 58.782 285.098 58.598C285.166 58.41 285.262 58.248 285.386 58.112C285.51 57.972 285.66 57.862 285.836 57.782C286.016 57.698 286.218 57.656 286.442 57.656C286.614 57.656 286.774 57.682 286.922 57.734C287.07 57.782 287.204 57.85 287.324 57.938C287.444 58.022 287.546 58.122 287.63 58.238C287.718 58.354 287.786 58.48 287.834 58.616C287.894 58.784 287.936 58.962 287.96 59.15C287.988 59.334 288.002 59.564 288.002 59.84C288.002 60.236 287.962 60.588 287.882 60.896C287.806 61.2 287.698 61.456 287.558 61.664C287.418 61.868 287.252 62.022 287.06 62.126C286.868 62.234 286.66 62.288 286.436 62.288C286.048 62.288 285.732 62.178 285.488 61.958C285.244 61.734 285.098 61.416 285.05 61.004H285.734Z" fill="#CB9491"/>
<path d="M302.297 62.192H301.619V58.598C301.603 58.614 301.515 58.668 301.355 58.76C301.199 58.852 300.983 58.968 300.707 59.108V58.478C300.899 58.39 301.073 58.288 301.229 58.172C301.385 58.056 301.539 57.918 301.691 57.758H302.135C302.199 57.758 302.241 57.77 302.261 57.794C302.285 57.814 302.297 57.856 302.297 57.92V62.192ZM305.198 61.73C305.382 61.73 305.53 61.668 305.642 61.544C305.754 61.416 305.838 61.262 305.894 61.082C305.95 60.898 305.986 60.704 306.002 60.5C306.022 60.292 306.032 60.106 306.032 59.942C306.032 59.834 306.028 59.716 306.02 59.588C306.016 59.456 306.002 59.324 305.978 59.192C305.958 59.056 305.93 58.926 305.894 58.802C305.858 58.674 305.808 58.562 305.744 58.466C305.684 58.366 305.608 58.288 305.516 58.232C305.428 58.172 305.322 58.142 305.198 58.142C305.074 58.142 304.968 58.172 304.88 58.232C304.796 58.288 304.724 58.366 304.664 58.466C304.604 58.562 304.556 58.674 304.52 58.802C304.488 58.926 304.462 59.056 304.442 59.192C304.426 59.324 304.414 59.456 304.406 59.588C304.402 59.716 304.4 59.834 304.4 59.942C304.4 60.05 304.402 60.17 304.406 60.302C304.414 60.43 304.426 60.56 304.442 60.692C304.462 60.824 304.488 60.954 304.52 61.082C304.556 61.206 304.604 61.316 304.664 61.412C304.724 61.508 304.796 61.586 304.88 61.646C304.968 61.702 305.074 61.73 305.198 61.73ZM306.434 61.544C306.322 61.772 306.166 61.956 305.966 62.096C305.77 62.236 305.514 62.306 305.198 62.306C304.886 62.306 304.632 62.234 304.436 62.09C304.244 61.95 304.092 61.768 303.98 61.544C303.872 61.316 303.798 61.062 303.758 60.782C303.722 60.498 303.704 60.218 303.704 59.942C303.704 59.666 303.722 59.388 303.758 59.108C303.798 58.824 303.872 58.57 303.98 58.346C304.088 58.118 304.24 57.932 304.436 57.788C304.632 57.644 304.886 57.572 305.198 57.572C305.514 57.572 305.77 57.644 305.966 57.788C306.166 57.932 306.322 58.118 306.434 58.346C306.546 58.57 306.622 58.824 306.662 59.108C306.706 59.388 306.728 59.666 306.728 59.942C306.728 60.218 306.706 60.498 306.662 60.782C306.622 61.062 306.546 61.316 306.434 61.544Z" fill="#CB9491"/>
<path d="M329.297 62.192H328.619V58.598C328.603 58.614 328.515 58.668 328.355 58.76C328.199 58.852 327.983 58.968 327.707 59.108V58.478C327.899 58.39 328.073 58.288 328.229 58.172C328.385 58.056 328.539 57.918 328.691 57.758H329.135C329.199 57.758 329.241 57.77 329.261 57.794C329.285 57.814 329.297 57.856 329.297 57.92V62.192ZM332.678 62.192H332V58.598C331.984 58.614 331.896 58.668 331.736 58.76C331.58 58.852 331.364 58.968 331.088 59.108V58.478C331.28 58.39 331.454 58.288 331.61 58.172C331.766 58.056 331.92 57.918 332.072 57.758H332.516C332.58 57.758 332.622 57.77 332.642 57.794C332.666 57.814 332.678 57.856 332.678 57.92V62.192Z" fill="#CB9491"/>
<path d="M346.297 62.192H345.619V58.598C345.603 58.614 345.515 58.668 345.355 58.76C345.199 58.852 344.983 58.968 344.707 59.108V58.478C344.899 58.39 345.073 58.288 345.229 58.172C345.385 58.056 345.539 57.918 345.691 57.758H346.135C346.199 57.758 346.241 57.77 346.261 57.794C346.285 57.814 346.297 57.856 346.297 57.92V62.192ZM350.578 62.192H347.866C347.802 62.192 347.758 62.18 347.734 62.156C347.714 62.136 347.704 62.094 347.704 62.03V61.64C347.8 61.548 347.918 61.434 348.058 61.298C348.198 61.158 348.344 61.008 348.496 60.848C348.652 60.684 348.806 60.514 348.958 60.338C349.114 60.158 349.252 59.982 349.372 59.81C349.496 59.638 349.596 59.476 349.672 59.324C349.748 59.168 349.786 59.03 349.786 58.91C349.79 58.67 349.73 58.496 349.606 58.388C349.482 58.28 349.316 58.226 349.108 58.226C348.904 58.226 348.74 58.298 348.616 58.442C348.496 58.582 348.436 58.792 348.436 59.072H347.74C347.74 58.852 347.776 58.656 347.848 58.484C347.92 58.308 348.016 58.16 348.136 58.04C348.26 57.916 348.404 57.822 348.568 57.758C348.736 57.69 348.916 57.656 349.108 57.656C349.3 57.656 349.478 57.684 349.642 57.74C349.81 57.792 349.956 57.87 350.08 57.974C350.204 58.074 350.302 58.2 350.374 58.352C350.446 58.504 350.482 58.676 350.482 58.868C350.482 59.044 350.446 59.222 350.374 59.402C350.302 59.582 350.208 59.76 350.092 59.936C349.976 60.112 349.846 60.284 349.702 60.452C349.562 60.616 349.42 60.772 349.276 60.92C349.132 61.064 348.996 61.196 348.868 61.316C348.744 61.436 348.642 61.538 348.562 61.622H350.578V62.192Z" fill="#CB9491"/>
<defs>
<filter id="filter0_d_205_341" x="0" y="0" width="532" height="248" filterUnits="userSpaceOnUse" color-interpolation-filters="sRGB">
<feFlood flood-opacity="0" result="BackgroundImageFix"/>
<feColorMatrix in="SourceAlpha" type="matrix" values="0 0 0 0 0 0 0 0 0 0 0 0 0 0 0 0 0 0 127 0" result="hardAlpha"/>
<feOffset dy="4"/>
<feGaussianBlur stdDeviation="2"/>
<feComposite in2="hardAlpha" operator="out"/>
<feColorMatrix type="matrix" values="0 0 0 0 0 0 0 0 0 0 0 0 0 0 0 0 0 0 0.25 0"/>
<feBlend mode="normal" in2="BackgroundImageFix" result="effect1_dropShadow_205_341"/>
<feBlend mode="normal" in="SourceGraphic" in2="effect1_dropShadow_205_341" result="shape"/>
</filter>
</defs>
</svg>
