<svg width="11" height="13" viewBox="0 0 11 13" fill="none" xmlns="http://www.w3.org/2000/svg">
<path d="M8.94413 12.3473C8.31964 12.355 7.72774 12.0507 7.34445 11.5248C6.96116 10.999 6.83063 10.3122 6.99168 9.66875L3.3788 7.46661C2.7545 8.07656 1.83939 8.20565 1.08784 7.78979C0.336297 7.37393 -0.0916033 6.5017 0.0166061 5.60618C0.124816 4.71066 0.746086 3.98259 1.57194 3.7835C2.39779 3.5844 3.25232 3.95667 3.71123 4.71547L6.9911 2.71582C6.94866 2.54483 6.92618 2.36891 6.92415 2.19205C6.91588 1.1622 7.58659 0.267573 8.53044 0.0495004C9.4743 -0.168572 10.4321 0.3498 10.8242 1.29096C11.2164 2.23211 10.9353 3.33758 10.1509 3.93845C9.36656 4.53932 8.29443 4.47057 7.58324 3.7738L4.03327 5.93717C4.02975 6.09678 4.00884 6.2554 3.97094 6.40985L7.58324 8.61138C8.24826 7.96055 9.23776 7.86009 10.006 8.36539C10.7742 8.8707 11.1342 9.85877 10.8873 10.7846C10.6404 11.7105 9.84674 12.3487 8.94413 12.3473ZM8.94413 9.26993C8.46602 9.26993 8.07843 9.68326 8.07843 10.1931C8.07843 10.703 8.46602 11.1163 8.94413 11.1163C9.42225 11.1163 9.80984 10.703 9.80984 10.1931C9.80984 9.68326 9.42225 9.26993 8.94413 9.26993ZM2.01848 4.96166C1.54037 4.96166 1.15278 5.37499 1.15278 5.88486C1.15278 6.39473 1.54037 6.80806 2.01848 6.80806C2.4966 6.80806 2.88419 6.39473 2.88419 5.88486C2.88419 5.37499 2.4966 4.96166 2.01848 4.96166ZM8.94413 1.26885C8.46602 1.26885 8.07843 1.68218 8.07843 2.19205C8.07843 2.70192 8.46602 3.11525 8.94413 3.11525C9.42225 3.11525 9.80984 2.70192 9.80984 2.19205C9.80984 1.68218 9.42225 1.26885 8.94413 1.26885Z" fill="black"/>
</svg>
