<svg id="레이어_1" data-name="레이어 1" xmlns="http://www.w3.org/2000/svg" xmlns:xlink="http://www.w3.org/1999/xlink" viewBox="0 0 105.48 29.04"><defs><style>.cls-1{font-size:12px;font-family:NotoSansKR-Bold-KSCpc-EUC-H, Noto Sans KR;}.cls-2{opacity:0.45;}.cls-3,.cls-4{fill:none;stroke:#000;}.cls-3{stroke-miterlimit:10;}.cls-4{stroke-linecap:round;stroke-linejoin:round;}</style></defs><text class="cls-1" transform="translate(0 16.49)">공부 유형 테스트</text><image class="cls-2" width="64" height="64" transform="translate(83.36) scale(0.34)" xlink:href="../../../Downloads/icons8-study-64.png"/><circle class="cls-3" cx="97.36" cy="9" r="5"/><path class="cls-3" d="M109.33,18.91l-3.16-3.16a4.81,4.81,0,0,1-1.42,1.42l3.16,3.16a1,1,0,1,0,1.42-1.42Z" transform="translate(-4.64 -4)"/><path class="cls-4" d="M104.5,20.5l-.14-13.56H93.5a2,2,0,0,0-1,1.56V21.77s0-1.27,1-1.27l11,0Z" transform="translate(-4.64 -4)"/><path class="cls-4" d="M104.5,23.5h-11a1.92,1.92,0,0,1-1-1.73" transform="translate(-4.64 -4)"/><line class="cls-4" x1="99.03" y1="19.5" x2="99.03" y2="16.49"/><line class="cls-4" x1="99.03" y1="17.64" x2="91.86" y2="17.64"/><path class="cls-4" d="M92.75,19.5A1.25,1.25,0,1,1,94,18.25" transform="translate(-4.64 -4)"/></svg>